<svg  width="800" height="800" xmlns="http://www.w3.org/2000/svg" viewBox="0 0 800 800" preserveAspectRatio="xMidYMid meet"><defs><radialGradient id="glow-gradient" cx="50%" cy="50%" r="50%"><stop offset="0%" stop-color="#CCCCCC" stop-opacity="0.6"></stop><stop offset="100%" stop-color="#CCCCCC" stop-opacity="0"></stop></radialGradient></defs><g transform="translate(40,40)"><path d="M672.8,140.2L678.2,146.6L683.2,159.0L686.0,167.2L688.9,173.6L692.1,180.5L694.6,187.7L698.2,195.1L700.8,202.2L706.0,214.4L706.0,226.7L706.0,242.9L706.1,249.6L707.4,275.6L707.5,277.2L713.5,285.1L712.1,314.2L713.0,326.8L713.0,341.9L711.7,359.0L711.7,359.0L709.0,370.9L705.4,390.6L697.4,410.3L688.9,430.0L678.2,449.7L672.6,454.9L672.6,543.5L672.6,548.9L672.6,553.3L660.1,576.4L660.0,576.5L659.9,576.7L659.5,577.3L659.4,577.5L659.2,577.8L659.1,577.9L658.2,579.2L658.1,579.3L657.9,579.7L657.8,579.8L657.3,580.4L657.2,580.6L657.1,580.8L657.0,580.9L656.9,581.1L656.0,582.3L655.9,582.5L655.7,582.8L655.6,582.9L655.1,583.5L655.0,583.7L654.8,584.0L654.7,584.2L653.8,585.4L653.6,585.5L653.4,585.8L653.3,586.0L652.8,586.6L652.7,586.8L652.5,587.1L652.4,587.2L651.5,588.4L651.4,588.6L651.1,588.9L651.0,589.0L650.5,589.6L650.4,589.8L650.2,590.1L650.1,590.2L649.1,591.4L649.0,591.6L648.8,591.9L648.7,592.0L648.2,592.6L648.1,592.8L647.8,593.1L647.7,593.2L646.8,594.4L646.6,594.6L646.4,594.9L646.3,595.0L645.8,595.6L645.7,595.8L645.4,596.0L645.3,596.2L644.3,597.4L644.3,597.4L644.2,597.6L644.1,597.6L643.9,597.9L643.9,597.9L643.8,598.0L643.7,598.1L643.3,598.6L643.3,598.6L643.2,598.7L643.2,598.7L643.1,598.9L643.0,599.0L642.9,599.1L642.8,599.2L642.7,599.3L642.7,599.4L642.6,599.4L642.6,599.5L642.5,599.6L642.4,599.7L642.4,599.7L642.3,599.8L642.3,599.8L642.2,600.0L642.1,600.0L641.9,600.2L641.9,600.3L641.8,600.4L641.7,600.4L641.4,600.9L641.3,600.9L641.2,601.0L641.2,601.1L641.0,601.3L641.0,601.4L640.9,601.5L640.8,601.5L640.1,602.4L640.0,602.5L639.8,602.7L639.7,602.8L639.3,603.2L639.2,603.3L639.0,603.5L639,603.6L638.2,604.5L638.1,604.6L637.9,604.8L637.8,604.9L637.4,605.3L637.3,605.4L637.2,605.6L637.1,605.8L636.3,606.6L635.9,607.0L635.2,607.8L634.8,608.2L634.4,608.6L633.5,609.5L633.3,609.8L633.2,609.9L632.3,610.9L632.0,611.1L631.6,611.6L631.3,611.9L630.9,612.3L630.8,612.5L630.7,612.5L630.5,612.7L630.4,612.9L629.7,613.6L629.5,613.8L629.0,614.3L628.8,614.5L627.3,616.1L627.1,616.2L626.7,616.6L626.5,616.8L625.7,617.6L625.5,617.8L625.2,618.2L625.0,618.3L623.8,619.5L623.6,619.7L623.3,620.0L623.1,620.2L622.4,620.8L622.2,621.0L621.8,621.3L621.7,621.5L620.3,622.8L620.1,623.0L619.7,623.3L619.5,623.5L618.8,624.1L618.7,624.3L618.3,624.6L618.1,624.8L616.9,625.9L616.8,626.0L616.7,626.1L616.6,626.2L616.3,626.4L616.3,626.5L616.1,626.6L616.1,626.6L615.9,626.8L615.8,626.8L615.7,627.0L615.6,627.0L615.5,627.2L615.1,627.5L614.9,627.7L613.5,628.9L613.3,629.1L612.9,629.4L612.8,629.6L612.0,630.2L611.9,630.3L611.5,630.7L611.3,630.8L610.2,631.8L610.1,631.8L610.0,631.9L609.9,632.0L609.7,632.2L609.6,632.3L609.5,632.4L609.4,632.4L608.9,632.8L608.9,632.9L608.8,632.9L608.8,633.0L608.6,633.1L608.5,633.2L608.2,633.4L608.1,633.5L607.8,633.8L607.7,633.9L607.5,634.0L607.4,634.1L606.9,634.5L606.8,634.6L606.7,634.7L606.6,634.7L606.4,634.9L606.3,635.0L606.2,635.1L606.1,635.2L605.3,635.9L605.1,636.0L604.9,636.1L604.1,636.8L604.0,636.8L603.3,637.5L603.1,637.6L602.9,637.8L602.5,638.0L602.1,638.4L602.0,638.4L601.9,638.5L601.6,638.8L601.4,638.9L601.2,639.1L600.7,639.5L600.5,639.6L600.4,639.7L599.9,640.1L599.8,640.1L599.6,640.3L599.5,640.4L598.6,641.1L598.4,641.2L598.2,641.3L598.1,641.4L597.7,641.8L597.5,641.9L597.3,642.0L597.2,642.1L596.3,642.8L596.2,642.9L596.0,643.0L595.8,643.1L595.4,643.5L595.3,643.5L595.0,643.7L594.9,643.8L594.0,644.4L593.9,644.5L593.7,644.7L593.6,644.8L593.1,645.1L593.0,645.2L592.7,645.4L592.6,645.4L591.7,646.1L591.6,646.2L591.4,646.3L591.2,646.4L590.8,646.7L590.7,646.8L590.4,647.0L590.3,647.1L589.4,647.7L589.3,647.8L589.0,647.9L588.9,648.0L588.5,648.3L588.3,648.4L588.1,648.6L588.0,648.7L587.1,649.3L586.9,649.4L586.7,649.5L586.6,649.6L586.1,649.9L586.0,650.0L585.8,650.2L585.6,650.2L584.7,650.9L584.6,650.9L584.3,651.1L584.2,651.2L583.8,651.5L583.6,651.6L583.4,651.7L583.3,651.8L582.5,652.3L582.3,652.4L582.2,652.5L581.9,652.7L581.8,652.7L581.4,653.1L581.2,653.1L581.0,653.3L580.9,653.4L579.9,654.0L579.8,654.0L579.6,654.2L579.5,654.3L579.0,654.6L578.9,654.7L578.6,654.8L578.5,654.9L577.5,655.5L577.4,655.6L577.2,655.7L577.1,655.8L576.6,656.1L576.5,656.2L576.2,656.3L576.1,656.4L575.1,657.0L575.0,657.0L574.8,657.2L574.7,657.3L574.2,657.6L574.1,657.6L573.8,657.8L573.7,657.9L572.7,658.4L572.6,658.5L572.4,658.7L572.2,658.7L571.8,659.0L571.6,659.1L571.4,659.2L571.3,659.3L570.3,659.9L570.2,659.9L570.2,659.9L569.9,660.1L569.3,660.5L568.8,660.9L568.2,661.2L567.6,661.6L567.1,662.0L567.0,662.0L566.3,662.5L566.2,662.6L565.9,662.8L565.8,662.9L565.4,663.2L565.2,663.3L565.0,663.4L564.9,663.5L564.0,664.2L563.9,664.3L563.6,664.4L563.5,664.5L563.1,664.8L562.9,664.9L562.7,665.1L562.6,665.2L561.7,665.8L561.5,665.9L561.3,666.0L561.2,666.1L560.7,666.4L560.6,666.5L560.4,666.7L560.3,666.8L559.3,667.4L559.2,667.5L559.0,667.6L558.9,667.7L558.4,668.0L558.3,668.1L558.0,668.3L557.9,668.3L557.0,669.0L556.9,669.0L556.6,669.2L556.5,669.3L556.0,669.6L555.9,669.7L555.7,669.8L555.6,669.9L554.6,670.5L554.5,670.6L554.3,670.7L554.1,670.8L553.7,671.1L553.5,671.2L553.3,671.3L553.2,671.4L552.2,672.0L552.1,672.1L551.9,672.2L551.8,672.3L551.3,672.6L551.2,672.7L550.9,672.8L550.8,672.9L549.8,673.5L549.7,673.6L549.5,673.7L549.4,673.8L548.9,674.1L548.7,674.2L548.5,674.3L548.4,674.4L547.4,675.0L547.3,675.0L547.1,675.2L546.9,675.2L546.4,675.5L546.3,675.6L546.1,675.8L546.0,675.8L545.0,676.4L544.9,676.4L544.8,676.5L544.8,676.5L544.6,676.6L544.5,676.7L544.4,676.7L544.4,676.8L543.9,677.0L543.9,677.0L543.8,677.1L543.8,677.1L543.6,677.2L543.5,677.2L543.3,677.4L543.2,677.4L542.9,677.6L542.8,677.7L542.7,677.7L542.6,677.8L542.1,678.1L542.0,678.1L541.9,678.2L541.8,678.2L541.6,678.3L541.5,678.4L541.4,678.4L541.4,678.5L540.5,678.9L540.4,679.0L540.2,679.1L540.1,679.2L539.7,679.4L539.6,679.5L539.4,679.6L539.3,679.6L538.4,680.1L538.3,680.2L538.1,680.3L538.0,680.3L537.6,680.6L537.5,680.6L537.2,680.7L537.1,680.8L536.3,681.2L536.2,681.3L536.0,681.4L535.9,681.5L535.4,681.7L535.3,681.8L535.1,681.9L535.0,681.9L534.2,682.4L534.1,682.4L533.8,682.5L533.7,682.6L533.3,682.8L533.2,682.9L533.0,683.0L532.9,683.0L532.0,683.5L531.9,683.5L531.7,683.6L531.6,683.7L531.2,683.9L531.1,684.0L530.8,684.1L530.7,684.1L529.9,684.6L529.8,684.6L529.6,684.7L529.4,684.8L529.0,685.0L528.9,685.0L528.7,685.1L528.6,685.2L527.7,685.6L527.6,685.7L527.4,685.8L527.3,685.8L526.8,686.0L526.7,686.1L526.5,686.2L526.4,686.2L525.5,686.7L525.4,686.7L525.2,686.8L525.1,686.9L524.7,687.1L524.6,687.1L524.4,687.2L524.2,687.3L523.4,687.7L523.3,687.7L523.0,687.8L522.9,687.9L522.5,688.1L522.4,688.1L522.2,688.2L522.1,688.3L521.2,688.7L521.1,688.7L520.9,688.8L520.7,688.9L520.3,689.1L520.2,689.1L520.0,689.2L519.9,689.3L519.0,689.7L518.9,689.7L518.7,689.8L518.5,689.9L518.1,690.1L518.0,690.1L517.8,690.2L517.7,690.3L516.8,690.6L516.7,690.7L516.5,690.8L516.3,690.8L515.9,691.0L515.8,691.1L515.6,691.2L515.5,691.2L514.6,691.6L514.4,691.6L514.1,691.8L513.9,691.9L513.2,692.1L513.1,692.2L512.7,692.3L512.6,692.4L511.6,692.8L510.7,693.2L510.7,693.2L510.6,693.2L510.5,693.2L510.3,693.3L510.2,693.3L510.1,693.4L510.1,693.4L510.0,693.4L509.9,693.5L509.7,693.6L509.5,693.6L509.5,693.6L509.1,693.8L508.9,693.9L508.7,694.0L508.6,694.0L507.8,694.3L507.7,694.3L507.6,694.4L507.5,694.4L507.4,694.4L507.0,694.6L506.9,694.6L506.7,694.7L506.6,694.8L506.4,694.9L506.3,694.9L506.2,694.9L506.1,695L505.9,695.0L505.8,695.1L505.7,695.1L505.6,695.1L505.1,695.3L504.9,695.4L504.7,695.5L504.6,695.5L504.2,695.7L503.6,695.9L503.3,696.0L502.8,696.2L502.6,696.3L502.4,696.3L502.2,696.4L502.1,696.4L501.7,696.6L501.6,696.6L501.4,696.7L501.3,696.7L500.7,696.9L500.6,697.0L500.5,697.0L500.4,697.1L500.0,697.2L500.0,697.2L499.8,697.3L499.7,697.3L498.5,697.7L498.4,697.7L498.1,697.8L498.0,697.9L497.5,698.1L497.4,698.1L497.1,698.2L497.0,698.2L496.0,698.6L495.8,698.6L495.6,698.7L495.5,698.7L494.9,698.9L494.8,698.9L494.6,699.0L494.4,699.1L493.5,699.4L493.4,699.4L493.1,699.5L493.0,699.5L492.6,699.7L492.4,699.7L492.2,699.8L492.1,699.8L491.2,700.1L491.0,700.2L490.8,700.2L490.7,700.3L490.2,700.4L490.1,700.4L489.9,700.5L489.7,700.6L488.8,700.8L488.7,700.9L488.5,700.9L488.4,701.0L487.9,701.1L487.8,701.1L487.5,701.2L487.4,701.3L486.5,701.5L486.4,701.6L486.1,701.6L486.0,701.7L485.6,701.8L485.4,701.8L485.2,701.9L485.1,701.9L484.2,702.2L484.0,702.2L483.8,702.3L483.7,702.3L483.2,702.5L483.1,702.5L482.9,702.6L482.7,702.6L481.8,702.8L481.7,702.9L481.5,702.9L481.3,703.0L480.9,703.1L480.8,703.1L480.5,703.2L480.4,703.2L479.5,703.5L479.3,703.5L479.1,703.6L479.0,703.6L478.5,703.7L478.4,703.7L478.2,703.8L478.1,703.8L477.1,704.1L477.0,704.1L476.8,704.2L476.6,704.2L476.2,704.3L476.1,704.3L476.0,704.3L475.7,704.4L475.5,704.5L475.2,704.5L475.1,704.6L474.5,704.7L474.4,704.8L474.1,704.8L474.0,704.9L472.8,705.1L472.7,705.2L472.4,705.3L472.2,705.3L471.7,705.4L471.5,705.5L471.2,705.5L471.1,705.6L469.9,705.8L469.8,705.9L469.5,705.9L469.4,706.0L468.8,706.1L468.6,706.1L468.4,706.2L468.2,706.2L467.1,706.5L466.9,706.5L466.6,706.6L466.5,706.6L465.9,706.7L465.8,706.8L465.5,706.8L465.3,706.9L464.2,707.1L464.0,707.1L463.7,707.2L463.6,707.2L463.0,707.3L462.9,707.4L462.6,707.4L462.4,707.5L461.3,707.7L461.1,707.7L460.8,707.8L460.7,707.8L460.1,707.9L460.0,707.9L459.7,708.0L459.5,708.0L458.4,708.2L458.3,708.2L458.2,708.3L458.1,708.3L457.8,708.3L457.8,708.3L457.6,708.4L457.5,708.4L457.0,708.5L456.9,708.5L456.8,708.5L456.7,708.5L456.5,708.6L456.4,708.6L456.3,708.6L456.2,708.6L456.0,708.7L456.0,708.7L455.7,708.7L455.6,708.7L455.5,708.8L455.4,708.8L454.9,708.9L454.8,708.9L454.7,708.9L454.6,708.9L454.4,708.9L454.3,709.0L454.2,709.0L454.1,709.0L453.1,709.1L453.0,709.2L452.8,709.2L452.7,709.2L452.2,709.3L452.0,709.3L451.8,709.4L451.7,709.4L450.7,709.5L450.6,709.5L450.3,709.6L450.2,709.6L449.7,709.7L449.6,709.7L449.4,709.7L449.2,709.8L448.3,709.9L448.1,709.9L447.9,709.9L447.8,710.0L447.3,710.0L447.2,710.0L446.9,710.1L446.8,710.1L445.8,710.2L445.7,710.2L445.5,710.3L445.3,710.3L444.9,710.4L444.7,710.4L444.5,710.4L444.4,710.4L443.4,710.5L443.3,710.6L443.0,710.6L442.9,710.6L442.4,710.7L442.3,710.7L442.0,710.7L441.9,710.7L440.9,710.8L440.8,710.9L440.6,710.9L440.5,710.9L440.0,711.0L439.8,711.0L439.6,711.0L439.5,711.0L438.5,711.1L438.4,711.1L438.3,711.1L438.2,711.1L438.0,711.2L437.9,711.2L437.8,711.2L437.8,711.2L437.3,711.2L437.2,711.2L437.1,711.3L437.0,711.3L436.8,711.3L436.7,711.3L436.6,711.3L436.5,711.3L435.9,711.4L435.2,711.4L434.5,711.5L433.8,711.6L433.5,711.6L433.2,711.6L432.5,711.7L431.8,711.8L431.2,711.8L431.1,711.8L430.5,711.9L429.8,712.0L429.1,712.0L428.4,712.1L427.7,712.2L427.1,712.2L426.4,712.3L425.7,712.4L425.0,712.4L424.4,712.5L423.7,712.6L423.0,712.6L422.3,712.7L421.7,712.8L421.0,712.8L420.3,712.9L419.6,713.0L419.0,713.0L418.3,713.1L417.6,713.2L416.9,713.2L416.3,713.3L415.6,713.4L414.9,713.4L414.2,713.5L413.5,713.6L412.9,713.6L412.2,713.7L411.5,713.8L410.8,713.8L410.2,713.9L409.5,714.0L408.8,714.0L408.1,714.1L407.5,714.2L406.8,714.2L406.1,714.3L405.4,714.4L404.8,714.4L404.1,714.5L403.4,714.5L402.7,714.6L402.1,714.7L401.4,714.7L400.7,714.8L400.0,714.9L399.4,714.9L398.7,715.0L398.0,715.1L397.3,715.1L396.6,715.2L396.0,715.3L395.3,715.3L394.6,715.4L393.9,715.5L393.3,715.5L392.6,715.6L391.9,715.7L391.2,715.7L390.6,715.8L389.9,715.9L389.2,715.9L388.5,716.0L387.9,716.1L387.2,716.1L386.5,716.2L385.8,716.3L385.2,716.3L384.5,716.4L383.8,716.5L383.1,716.5L382.9,716.6L382.9,716.6L382.6,716.6L382.5,716.6L381.4,716.8L381.2,716.8L381.0,716.8L380.8,716.8L380.3,716.9L380.2,716.9L379.9,717.0L379.8,717.0L378.7,717.1L378.5,717.1L378.3,717.2L378.1,717.2L377.6,717.3L377.4,717.3L377.2,717.3L377.0,717.3L376.0,717.4L375.8,717.5L375.5,717.5L375.4,717.5L374.9,717.6L374.7,717.6L374.5,717.6L374.3,717.6L373.2,717.7L373.1,717.8L372.8,717.8L372.7,717.8L372.1,717.8L372.0,717.9L371.7,717.9L371.6,717.9L370.5,718.0L370.4,718.0L370.1,718.0L370.0,718.1L369.4,718.1L369.3,718.1L369.0,718.1L368.9,718.2L367.8,718.2L367.6,718.3L367.4,718.3L367.2,718.3L366.7,718.3L366.6,718.3L366.3,718.4L366.1,718.4L365.1,718.5L364.9,718.5L364.6,718.5L364.5,718.5L364.0,718.5L363.8,718.5L363.6,718.6L363.4,718.6L362.3,718.6L362.2,718.6L361.9,718.7L361.8,718.7L361.2,718.7L361.1,718.7L360.8,718.7L360.7,718.7L359.6,718.8L359.5,718.8L359.2,718.8L359.1,718.8L358.5,718.8L358.4,718.8L358.1,718.9L358.0,718.9L356.9,718.9L356.7,718.9L356.5,718.9L356.3,718.9L355.8,719.0L355.6,719.0L355.4,719.0L355.2,719.0L354.1,719.0L353.9,719.0L353.5,719.0L353.3,719.0L352.6,719.0L352.4,719.1L352.0,719.1L351.8,719.1L350.2,719.1L350.0,719.1L349.6,719.1L349.4,719.1L348.6,719.1L348.4,719.1L348.1,719.1L347.9,719.1L347.0,719.1L346.8,719.1L346.7,719.1L346.4,719.1L346.3,719.1L346.2,719.1L345.9,719.1L345.8,719.1L345.3,719.1L345.2,719.1L344.9,719.1L344.8,719.1L343.8,719.1L343.8,719.1L343.6,719.1L343.6,719.1L342.9,719.1L342.8,719.1L342.7,719.1L342.1,719.1L342.1,719.1L342.0,719.1L341.5,719.2L341.3,719.2L341.1,719.2L340.9,719.2L339.8,719.3L339.7,719.3L339.4,719.3L339.3,719.3L338.7,719.4L338.6,719.4L338.3,719.4L338.1,719.4L337.2,719.5L337.1,719.5L336.8,719.5L336.7,719.5L336.2,719.5L336.1,719.5L335.9,719.5L335.8,719.5L334.8,719.6L334.7,719.6L334.5,719.6L334.4,719.6L333.9,719.6L333.8,719.6L333.5,719.7L333.4,719.7L332.5,719.7L332.3,719.7L332.1,719.7L332.0,719.7L331.5,719.7L331.4,719.7L331.2,719.8L331.0,719.8L330.1,719.8L330.0,719.8L329.8,719.8L329.6,719.8L329.2,719.8L329.0,719.8L328.8,719.8L328.7,719.8L327.8,719.9L327.6,719.9L327.4,719.9L327.3,719.9L326.8,719.9L326.7,719.9L326.5,719.9L326.3,719.9L325.4,719.9L325.3,719.9L325.0,719.9L324.9,719.9L324.5,719.9L324.3,719.9L324.1,719.9L324.0,719.9L323.0,719.9L323.0,719.9L322.9,719.9L322.8,719.9L322.6,719.9L322.5,719.9L322.4,719.9L322.3,719.9L321.9,719.9L321.8,719.9L321.7,719.9L321.6,719.9L321.4,720L321.3,720L321.2,720L321.2,720L321.1,720L320.9,720L320.9,720L320.6,719.9L320.5,719.9L320.4,719.9L320.3,719.9L319.7,719.9L319.7,719.9L319.5,719.9L319.5,719.9L319.2,719.9L319.1,719.9L319.0,719.9L318.9,719.9L317.8,719.9L317.6,719.9L317.4,719.9L317.2,719.9L316.7,719.9L316.5,719.9L316.2,719.9L316.1,719.9L315.0,719.9L314.8,719.9L314.5,719.9L314.4,719.9L313.8,719.8L313.7,719.8L313.4,719.8L313.3,719.8L312.2,719.8L312.0,719.8L311.7,719.8L311.6,719.8L311.0,719.8L310.9,719.7L310.6,719.7L310.5,719.7L309.3,719.7L309.2,719.7L308.9,719.7L308.8,719.7L308.2,719.6L308.1,719.6L307.8,719.6L307.7,719.6L306.5,719.5L306.4,719.5L306.1,719.5L306.0,719.5L305.4,719.5L305.3,719.5L305.0,719.4L304.9,719.4L303.7,719.4L303.6,719.4L303.3,719.3L303.2,719.3L302.6,719.3L302.5,719.3L302.2,719.3L302.1,719.2L300.9,719.2L300.8,719.1L300.7,719.1L300.5,719.1L300.4,719.1L299.8,719.1L299.7,719.1L299.4,719.0L299.2,719.0L298.6,719.0L298.1,718.9L298.0,718.9L297.7,718.9L297.6,718.9L297.0,718.8L296.9,718.8L296.6,718.8L296.4,718.8L295.3,718.7L295.2,718.6L294.9,718.6L294.8,718.6L294.2,718.5L294.1,718.5L293.8,718.5L293.6,718.5L292.5,718.4L292.4,718.3L292.1,718.3L292.0,718.3L291.4,718.2L291.3,718.2L291.0,718.2L290.9,718.2L289.7,718.0L289.6,718.0L289.3,718.0L289.2,718.0L288.6,717.9L288.5,717.9L288.2,717.8L288.1,717.8L286.9,717.7L286.8,717.7L286.5,717.6L286.4,717.6L285.8,717.5L285.7,717.5L285.4,717.5L285.3,717.5L284.2,717.3L284.0,717.3L283.7,717.2L283.6,717.2L283.0,717.1L282.9,717.1L282.6,717.1L282.5,717.1L281.4,716.9L281.2,716.9L281.0,716.8L280.8,716.8L280.3,716.7L280.1,716.7L279.9,716.6L279.7,716.6L278.6,716.4L278.5,716.4L278.4,716.4L278.3,716.4L278.0,716.3L277.9,716.3L277.8,716.3L277.7,716.3L277.2,716.2L277.1,716.2L276.9,716.2L276.8,716.1L276.5,716.1L276.4,716.1L276.2,716.0L276.1,716.0L276.0,716.0L276.0,716.0L275.7,715.9L275.7,715.9L275.5,715.9L275.5,715.9L275.0,715.8L274.9,715.8L274.8,715.8L274.7,715.8L274.4,715.7L274.4,715.7L274.2,715.7L274.2,715.7L273.1,715.5L272.9,715.4L272.6,715.4L272.5,715.4L272.0,715.2L271.8,715.2L271.5,715.2L271.4,715.1L270.3,714.9L270.2,714.9L269.9,714.8L269.8,714.8L269.2,714.7L269.1,714.7L268.8,714.6L268.6,714.6L267.5,714.4L267.4,714.3L267.1,714.3L267.0,714.2L266.4,714.1L266.3,714.1L266.0,714.0L265.9,714.0L264.8,713.8L264.7,713.7L264.4,713.7L264.2,713.6L263.7,713.5L263.6,713.5L263.3,713.4L263.2,713.4L262.1,713.1L261.9,713.1L261.6,713.0L261.5,713.0L261.0,712.9L260.8,712.8L260.5,712.8L260.4,712.7L259.3,712.5L259.2,712.4L258.9,712.4L258.8,712.3L258.2,712.2L258.1,712.2L257.8,712.1L257.7,712.1L256.6,711.8L256.5,711.8L256.2,711.7L256.0,711.7L255.5,711.5L255.4,711.5L255.1,711.4L255.0,711.4L253.9,711.1L253.7,711.0L253.5,711.0L253.3,710.9L252.8,710.8L252.6,710.7L252.4,710.7L252.2,710.6L251.2,710.3L251.0,710.3L250.7,710.2L250.6,710.2L250.1,710.0L249.9,710.0L249.7,709.9L249.5,709.9L248.4,709.6L248.3,709.5L248.0,709.4L247.9,709.4L247.4,709.2L247.2,709.2L247.0,709.1L246.8,709.1L245.7,708.8L245.6,708.7L245.3,708.6L245.2,708.6L244.7,708.4L244.5,708.4L244.3,708.3L244.1,708.3L243.1,707.9L242.9,707.9L242.7,707.8L242.5,707.8L242.0,707.6L241.9,707.5L241.6,707.5L241.5,707.4L240.4,707.1L240.2,707.0L240.0,706.9L239.8,706.9L239.3,706.7L239.2,706.7L238.9,706.6L238.8,706.5L237.7,706.2L237.6,706.1L237.3,706.0L237.2,706.0L236.6,705.8L236.5,705.8L236.2,705.7L236.1,705.6L235.0,705.3L235.0,705.2L234.8,705.2L234.8,705.2L234.5,705.1L234.4,705.0L234.2,705.0L234.2,705.0L233.6,704.7L233.5,704.7L233.3,704.7L233.3,704.6L232.9,704.5L232.8,704.5L232.6,704.4L232.5,704.3L232.4,704.3L232.2,704.2L232.2,704.2L232.1,704.2L232.0,704.2L231.5,704.0L231.5,704.0L231.3,703.9L231.3,703.9L231.0,703.8L231.0,703.8L230.9,703.8L230.8,703.7L229.8,703.3L229.6,703.3L229.4,703.2L229.2,703.1L228.7,702.9L228.6,702.9L228.3,702.8L228.2,702.7L228.1,702.7L228.0,702.7L227.7,702.6L227.1,702.3L226.6,702.1L226.4,702.1L226.2,702.0L226.0,701.9L225.0,701.5L224.8,701.5L224.6,701.4L224.5,701.3L223.9,701.1L223.8,701.1L223.5,701.0L223.4,700.9L222.4,700.5L222.2,700.4L222.0,700.3L221.8,700.3L221.3,700.1L221.2,700.0L220.9,699.9L220.8,699.9L219.8,699.4L219.6,699.4L219.4,699.3L219.2,699.2L218.7,699.0L218.6,698.9L218.3,698.8L218.2,698.8L217.2,698.3L217.0,698.3L216.8,698.2L216.6,698.1L216.1,697.9L216.0,697.8L215.7,697.7L215.6,697.7L214.6,697.2L214.4,697.2L214.2,697.1L214.1,697.0L213.5,696.8L213.4,696.7L213.1,696.6L213.0,696.5L212.0,696.1L211.9,696.0L211.6,695.9L211.5,695.8L211.0,695.6L210.8,695.6L210.6,695.4L210.5,695.4L209.4,694.9L209.3,694.8L209.0,694.7L208.9,694.7L208.4,694.4L208.3,694.4L208.0,694.2L207.9,694.2L206.9,693.7L206.8,693.6L206.5,693.5L206.4,693.5L205.9,693.2L205.7,693.2L205.5,693.0L205.4,693.0L204.3,692.5L204.2,692.4L204.0,692.3L203.8,692.2L203.3,692.0L203.2,691.9L203.0,691.8L202.8,691.7L201.8,691.2L201.7,691.2L201.4,691.0L201.3,691.0L200.8,690.7L200.7,690.6L200.4,690.5L200.3,690.4L199.3,689.9L199.2,689.9L198.9,689.7L198.8,689.7L198.3,689.4L198.2,689.3L197.9,689.2L197.8,689.1L196.8,688.6L196.7,688.6L196.4,688.4L196.3,688.4L195.8,688.1L195.7,688.0L195.4,687.9L195.3,687.8L194.3,687.3L194.2,687.2L194.0,687.1L193.8,687.0L193.3,686.7L193.2,686.7L193.0,686.5L192.9,686.5L191.9,685.9L191.8,685.9L191.7,685.8L191.6,685.8L191.3,685.6L191.3,685.5L191.1,685.5L191.0,685.4L190.5,685.1L190.4,685.1L190.3,685.0L190.2,685.0L190.1,684.9L189.8,684.7L189.7,684.7L189.4,684.5L189.3,684.5L189.3,684.4L189.0,684.3L189.0,684.3L188.9,684.2L188.9,684.2L188.3,683.9L188.3,683.9L188.1,683.8L188.1,683.7L187.8,683.6L187.7,683.6L187.6,683.5L187.6,683.4L186.6,682.9L186.5,682.8L186.4,682.8L186.4,682.7L186.1,682.6L186.1,682.6L186.0,682.5L185.9,682.5L185.5,682.2L185.4,682.2L185.3,682.1L185.2,682.1L185.0,681.9L185.0,681.9L184.9,681.8L184.8,681.8L184.4,681.6L184.4,681.5L184.2,681.4L184.1,681.4L183.8,681.2L183.7,681.1L183.5,681.0L183.4,681.0L182.7,680.5L182.6,680.5L182.5,680.4L182.4,680.3L182.1,680.1L182.0,680.1L181.8,680.0L181.7,679.9L181.1,679.5L181.0,679.5L180.9,679.4L180.9,679.4L180.6,679.2L180.6,679.2L180.4,679.1L180.4,679.1L179.9,678.8L179.8,678.7L179.7,678.7L179.7,678.6L179.4,678.5L179.4,678.4L179.2,678.4L179.2,678.3L178.5,677.9L178.4,677.8L178.3,677.7L178.2,677.7L177.8,677.5L177.8,677.4L177.6,677.3L177.5,677.3L176.9,676.8L176.8,676.8L176.6,676.7L176.6,676.6L176.2,676.4L176.2,676.4L176.0,676.3L175.9,676.2L175.7,676.0L175.6,676.0L175.5,675.9L175.4,675.9L175.2,675.7L175.1,675.7L175.0,675.6L175.0,675.6L174.5,675.3L174.4,675.2L174.3,675.1L174.2,675.1L174.0,674.9L174.0,674.9L173.8,674.8L173.8,674.8L172.8,674.2L172.8,674.1L172.7,674.0L172.6,674.0L172.4,673.8L172.3,673.8L172.2,673.7L172.1,673.7L171.7,673.4L171.6,673.3L171.5,673.2L171.4,673.2L171.2,673.0L171.2,673.0L171.0,672.9L171.0,672.9L170.9,672.8L170.8,672.8L170.7,672.7L170.6,672.6L170.3,672.4L170.2,672.3L170.0,672.2L169.9,672.2L169.3,671.7L169.2,671.7L169.1,671.5L169.0,671.5L168.7,671.3L168.6,671.2L168.5,671.1L168.4,671.0L167.5,670.5L167.5,670.4L167.4,670.3L167.3,670.3L167.1,670.1L167.0,670.1L166.9,670.0L166.8,670.0L166.4,669.6L166.3,669.6L166.2,669.5L166.2,669.5L165.9,669.3L165.9,669.3L165.8,669.2L165.7,669.1L165.3,668.8L165.2,668.8L165.2,668.7L165.1,668.7L165.0,668.6L164.9,668.6L164.9,668.5L164.8,668.5L164.5,668.3L164.5,668.2L164.4,668.2L164.4,668.1L164.2,668.0L164.2,668.0L164.1,667.9L164.0,667.9L163.7,667.7L163.6,667.6L163.6,667.6L163.5,667.5L163.4,667.5L163.2,667.3L163.2,667.3L163.1,667.2L163.0,667.2L162.5,666.7L161.9,666.3L161.8,666.3L161.7,666.2L161.6,666.1L161.3,665.9L161.3,665.9L161.1,665.7L161.1,665.7L160.5,665.3L160.4,665.2L160.3,665.1L160.2,665.0L159.9,664.8L159.8,664.8L159.7,664.7L159.6,664.6L158.5,663.7L158.3,663.6L158.0,663.4L157.9,663.3L157.3,662.9L157.2,662.8L156.9,662.5L156.8,662.4L155.6,661.5L155.5,661.4L155.2,661.2L155.1,661.1L154.5,660.6L154.4,660.5L154.1,660.3L153.9,660.2L152.8,659.3L152.7,659.2L152.6,659.1L152.5,659.0L152.2,658.8L152.1,658.7L152.0,658.6L151.9,658.5L151.2,658.0L151.1,657.9L150.9,657.7L150.8,657.7L150.5,657.3L150.3,657.2L150.1,657.0L150.0,656.9L149.8,656.8L149.8,656.8L149.4,656.5L149.4,656.4L149.3,656.3L149.2,656.3L149.0,656.2L149.0,656.1L148.9,656.0L148.9,656.0L148.0,655.3L147.9,655.2L147.7,655.0L147.6,654.9L147.1,654.5L147.0,654.5L146.8,654.3L146.7,654.2L145.9,653.4L145.8,653.3L145.5,653.2L145.4,653.1L145.0,652.7L144.9,652.6L144.7,652.4L144.6,652.3L143.7,651.6L143.6,651.5L143.4,651.3L143.3,651.2L142.9,650.8L142.8,650.7L142.6,650.5L142.5,650.4L141.6,649.7L141.5,649.6L141.3,649.4L141.2,649.3L140.8,648.9L140.7,648.8L140.5,648.6L140.4,648.5L139.5,647.8L139.4,647.7L139.2,647.5L139.1,647.4L138.7,647.0L138.6,646.9L138.4,646.7L138.3,646.6L137.5,645.8L137.4,645.7L137.2,645.5L137.1,645.4L136.7,645.0L136.6,644.9L136.4,644.8L136.3,644.7L135.4,643.9L135.3,643.8L135.1,643.6L135.0,643.5L134.6,643.1L134.5,643.0L134.3,642.8L134.2,642.7L133.4,641.9L133.3,641.8L133.1,641.6L133.0,641.5L132.6,641.1L132.5,641.0L132.3,640.8L132.2,640.7L131.4,639.9L131.3,639.8L131.1,639.6L131.0,639.5L130.6,639.1L130.5,639.0L130.3,638.8L130.2,638.7L129.4,637.9L129.3,637.8L129.1,637.5L129.0,637.4L128.7,637.0L128.6,636.9L128.4,636.7L128.3,636.6L127.5,635.8L127.4,635.7L127.2,635.5L127.1,635.4L126.7,635.0L126.6,634.9L126.4,634.7L126.3,634.6L125.5,633.7L125.5,633.6L125.3,633.4L125.2,633.3L124.8,632.9L124.7,632.8L124.5,632.6L124.4,632.5L123.6,631.6L123.5,631.5L123.4,631.3L123.3,631.2L122.9,630.8L122.8,630.7L122.6,630.5L122.5,630.4L121.7,629.5L121.7,629.4L121.5,629.2L121.4,629.1L121.0,628.7L120.9,628.6L120.7,628.4L120.6,628.3L119.9,627.4L119.8,627.3L119.7,627.2L119.7,627.1L119.4,626.9L119.4,626.8L119.3,626.7L119.2,626.6L118.8,626.1L118.7,626.0L118.5,625.8L118.5,625.8L118.2,625.4L118.1,625.3L117.9,625.1L117.8,625.0L117.7,624.9L117.7,624.8L117.4,624.5L117.3,624.4L117.3,624.3L117.2,624.3L117.1,624.1L117.0,624.1L117.0,624.0L116.9,624.0L116.2,623.1L116.1,623.0L115.9,622.8L115.8,622.6L115.5,622.2L115.4,622.1L115.2,621.9L115.1,621.8L114.4,620.9L114.3,620.8L114.1,620.6L114.1,620.5L113.7,620.0L113.6,619.9L113.4,619.7L113.3,619.6L112.6,618.7L112.5,618.6L112.4,618.3L112.3,618.2L111.9,617.8L111.8,617.7L111.7,617.5L111.6,617.3L110.9,616.5L110.8,616.3L110.6,616.1L110.5,616.0L110.2,615.6L110.1,615.4L109.9,615.2L109.8,615.1L109.2,614.2L109.1,614.1L108.9,613.9L108.8,613.7L108.5,613.3L108.4,613.2L108.2,613.0L108.1,612.8L107.4,611.9L107.4,611.8L107.2,611.6L107.1,611.5L106.8,611.0L106.7,610.9L106.5,610.7L106.4,610.6L105.8,609.6L105.7,609.5L105.5,609.3L105.4,609.2L105.1,608.7L105.0,608.6L104.9,608.4L104.8,608.3L104.1,607.3L104.0,607.2L103.9,607.0L103.8,606.9L103.5,606.4L103.4,606.3L103.2,606.1L103.1,605.9L102.5,605.0L102.4,604.9L102.2,604.7L102.2,604.5L101.8,604.1L101.8,604.0L101.6,603.7L101.5,603.6L100.9,602.7L100.8,602.6L100.6,602.3L100.6,602.2L100.2,601.7L100.2,601.6L100.0,601.4L99.9,601.3L99.3,600.3L99.2,600.2L99.1,600.0L99.0,599.8L98.7,599.4L98.6,599.2L98.4,599.0L98.4,598.9L97.7,597.9L97.7,597.8L97.5,597.6L97.4,597.5L97.1,597.0L97.0,596.9L96.9,596.6L96.8,596.5L96.2,595.5L96.1,595.4L96.0,595.2L95.9,595.1L95.6,594.6L95.5,594.5L95.4,594.2L95.3,594.1L94.7,593.1L94.6,593.0L94.5,592.8L94.4,592.6L94.1,592.2L94.0,592.0L93.9,591.8L93.8,591.7L93.2,590.7L93.2,590.6L93.1,590.5L93.0,590.4L92.9,590.1L92.8,590.0L92.7,589.9L92.7,589.8L92.3,589.2L92.3,589.1L92.1,588.9L92.1,588.8L91.8,588.4L91.7,588.2L91.6,588.0L91.5,587.9L91.5,587.8L91.5,587.7L91.2,587.3L91.2,587.3L91.2,587.2L91.1,587.2L91.0,587.0L91.0,586.9L90.9,586.8L90.9,586.8L90.3,585.8L90.3,585.7L90.1,585.4L90.1,585.3L89.8,584.8L89.7,584.7L89.6,584.4L89.5,584.3L88.9,583.3L88.9,583.2L88.7,583.0L88.7,582.8L88.4,582.3L88.3,582.2L88.2,582.0L88.1,581.8L87.6,580.8L87.5,580.7L87.4,580.5L87.3,580.3L87.0,579.8L87.0,579.7L86.8,579.5L86.8,579.3L86.2,578.3L86.2,578.2L86.0,578.0L86.0,577.8L85.7,577.3L85.6,577.2L85.5,576.9L85.4,576.8L84.9,575.8L84.8,575.7L84.7,575.4L84.6,575.3L84.4,574.8L84.3,574.7L84.2,574.4L84.1,574.3L83.6,573.3L83.5,573.1L83.4,572.9L83.3,572.8L83.1,572.3L83.0,572.1L82.9,571.9L82.8,571.7L82.3,570.7L82.3,570.6L82.2,570.3L82.1,570.2L81.8,569.7L81.8,569.6L81.7,569.3L81.6,569.2L81.1,568.2L81.0,568.0L80.9,567.8L80.9,567.6L80.6,567.1L80.6,567.0L80.4,566.7L80.4,566.6L79.9,565.6L79.8,565.5L79.7,565.2L79.6,565.1L79.4,564.6L79.4,564.4L79.2,564.2L79.2,564.0L78.7,563.0L78.6,562.9L78.5,562.6L78.5,562.5L78.2,562.0L78.2,561.8L78.1,561.6L78.0,561.4L77.5,560.4L77.5,560.3L77.4,560.0L77.3,559.9L77.1,559.3L77.0,559.2L76.9,559.0L76.9,558.8L76.4,557.8L76.4,557.6L76.3,557.4L76.2,557.3L76.0,556.7L75.9,556.6L75.8,556.3L75.8,556.2L75.3,555.1L75.3,555.0L75.2,554.8L75.1,554.6L74.9,554.1L74.8,554.0L74.7,553.7L74.7,553.6L74.2,552.5L74.2,552.4L74.1,552.1L74.0,552.0L73.8,551.4L73.8,551.3L73.7,551.0L73.6,550.9L73.2,549.9L73.2,549.8L73.1,549.6L73.1,549.5L72.9,549.2L72.9,549.1L72.8,548.9L72.8,548.8L72.6,548.2L72.5,548.1L72.4,547.8L72.4,547.7L72.2,547.2L72.1,547.1L72.0,546.8L72.0,546.7L72.0,546.6L71.8,546.2L71.8,546.1L71.8,546.0L71.7,546.0L71.7,545.8L71.6,545.7L71.6,545.6L71.6,545.6L71.2,544.5L71.2,544.4L71.1,544.1L71.0,544.0L70.8,543.4L70.8,543.3L70.7,543.0L70.6,542.9L70.2,541.8L70.2,541.7L70.1,541.4L70.1,541.3L69.9,540.7L69.8,540.6L69.7,540.3L69.7,540.2L69.3,539.1L69.3,539.0L69.2,538.7L69.1,538.6L69,538.0L68.9,537.9L68.8,537.6L68.8,537.5L68.4,536.4L68.4,536.3L68.3,536.0L68.2,535.9L68.1,535.3L68.0,535.2L67.9,534.9L67.9,534.8L67.5,533.7L67.5,533.6L67.4,533.3L67.4,533.2L67.2,532.6L67.2,532.5L67.1,532.2L67.0,532.1L66.7,531.0L66.7,530.8L66.6,530.6L66.5,530.4L66.4,529.9L66.3,529.7L66.3,529.5L66.2,529.3L65.9,528.2L65.8,528.1L65.8,527.8L65.7,527.7L65.6,527.1L65.5,527.0L65.5,526.7L65.4,526.6L65.1,525.5L65.1,525.4L65.0,525.1L65.0,524.9L64.8,524.4L64.8,524.3L64.7,524.0L64.6,523.8L64.4,522.7L64.3,522.6L64.2,522.3L64.2,522.2L64.1,521.6L64.0,521.5L64,521.2L63.9,521.1L63.6,520.0L63.6,519.8L63.5,519.6L63.5,519.4L63.3,518.9L63.3,518.7L63.2,518.4L63.2,518.3L62.9,517.2L62.9,517.1L62.8,516.8L62.8,516.6L62.7,516.1L62.6,516L62.6,515.7L62.5,515.5L62.3,514.4L62.2,514.3L62.2,514.0L62.1,513.9L62.0,513.3L62.0,513.2L61.9,512.9L61.9,512.7L61.6,511.6L61.6,511.5L61.5,511.2L61.5,511.1L61.4,510.5L61.4,510.4L61.3,510.1L61.3,510.0L61.0,508.8L61.0,508.7L60.9,508.4L60.9,508.3L60.8,507.7L60.8,507.6L60.7,507.3L60.7,507.2L60.5,506.0L60.4,505.9L60.4,505.8L60.4,505.7L60.3,505.3L60.3,505.2L60.3,505.1L60.2,505.0L60.1,504.2L60.1,504.1L60.0,503.9L60.0,503.7L59.9,503.2L59.9,503.1L59.8,502.8L59.8,502.7L59.8,502.6L59.7,502.2L59.7,502.1L59.7,502.0L59.7,501.9L59.6,501.7L59.6,501.7L59.6,501.6L59.6,501.5L59.6,501.5L59.4,500.4L59.4,500.4L59.4,500.3L59.3,500.0L59.3,499.9L59.2,499.3L59.2,499.2L59.2,499.1L59.1,498.9L59.1,498.7L58.9,497.6L58.9,497.5L58.8,497.2L58.8,497.0L58.7,496.5L58.7,496.3L58.7,496.0L58.6,495.9L58.5,494.8L58.4,494.6L58.4,494.3L58.4,494.2L58.3,493.6L58.3,493.5L58.2,493.2L58.2,493.1L58.0,491.9L58.0,491.8L58.0,491.5L58.0,491.4L57.9,490.8L57.9,490.7L57.8,490.4L57.8,490.2L57.6,489.1L57.6,489.0L57.6,488.7L57.6,488.5L57.5,488.0L57.5,487.8L57.4,487.5L57.4,487.4L57.3,486.3L57.3,486.1L57.2,485.8L57.2,485.7L57.1,485.1L57.1,485.0L57.1,484.7L57.1,484.6L57.0,483.4L56.9,483.3L56.9,483.0L56.9,482.9L56.8,482.3L56.8,482.1L56.8,481.9L56.8,481.7L56.7,480.6L56.6,480.4L56.6,480.1L56.6,480.0L56.5,479.4L56.5,479.3L56.5,479.0L56.5,478.9L56.4,477.7L56.4,477.6L56.3,477.3L56.3,477.2L56.3,476.6L56.3,476.4L56.2,476.2L56.2,476.0L56.1,474.9L56.1,474.7L56.1,474.4L56.1,474.3L56.1,473.7L56.0,473.6L56.0,473.3L56.0,473.2L55.9,472.0L55.9,471.9L55.9,471.6L55.9,471.4L55.9,470.9L55.9,470.7L55.8,470.4L55.8,470.3L55.8,469.1L55.8,469.0L55.7,468.7L55.7,468.6L55.7,468.0L55.7,467.9L55.7,467.6L55.7,467.4L55.6,466.3L55.6,466.1L55.6,465.9L55.6,465.7L55.6,465.1L55.6,465.0L55.5,464.7L55.5,464.6L55.5,463.4L55.5,463.3L55.5,463.0L55.5,462.8L55.5,462.3L55.5,462.1L55.5,461.8L55.4,461.7L55.4,460.6L55.4,460.5L55.4,460.3L55.4,460.2L55.4,459.8L55.4,459.7L55.4,459.5L55.4,459.5L55.4,458.7L55.4,458.6L55.4,458.3L55.4,458.2L55.4,457.7L55.4,457.5L55.4,457.2L55.4,457.1L55.4,457.0L55.4,456.6L55.3,456.5L55.3,456.4L55.3,456.4L55.3,456.2L55.3,456.1L55.3,456.0L55.3,456.0L55.3,454.8L55.3,454.7L55.3,454.7L55.3,454.4L55.3,454.2L55.3,453.7L55.3,453.5L55.3,453.2L55.3,453.1L55.3,451.9L55.4,451.8L55.4,451.5L55.4,451.4L55.4,450.8L55.4,450.7L55.4,450.4L55.4,450.2L55.4,449.1L55.4,448.9L55.4,448.6L55.4,448.5L55.4,447.9L55.4,447.8L55.4,447.5L55.4,447.4L55.5,446.2L55.5,446.1L55.5,445.8L55.5,445.6L55.5,445.1L55.5,444.9L55.5,444.6L55.5,444.5L55.6,443.3L55.6,443.2L55.6,442.9L55.6,442.8L55.6,442.2L55.6,442.1L55.6,441.8L55.6,441.6L55.7,440.5L55.7,440.3L55.7,440.0L55.7,439.9L55.8,439.3L55.8,439.2L55.8,438.9L55.8,438.8L55.8,438.3L55.7,438.2L55.7,438.0L55.0,437.1L54.9,436.9L54.7,436.7L54.7,436.6L54.3,436.1L54.3,435.9L54.1,435.7L54.0,435.6L53.4,434.6L53.3,434.5L53.1,434.2L53.0,434.1L52.7,433.6L52.6,433.5L52.5,433.2L52.4,433.1L51.8,432.1L51.7,432.0L51.5,431.7L51.4,431.6L51.1,431.1L51.1,431.0L50.9,430.7L50.8,430.6L50.2,429.6L50.1,429.5L50.0,429.2L49.9,429.1L49.6,428.6L49.5,428.5L49.3,428.2L49.3,428.1L48.6,427.1L48.6,427.0L48.5,426.8L48.5,426.8L48.3,426.4L48.2,426.4L48.1,426.2L48.1,426.1L47.7,425.5L47.6,425.4L47.5,425.1L47.4,425.0L47.1,424.5L47.0,424.4L46.9,424.1L46.8,424.0L46.6,423.7L46.6,423.6L46.5,423.5L46.5,423.5L46.4,423.3L46.4,423.3L46.3,423.2L46.3,423.1L46.0,422.6L45.9,422.5L45.9,422.4L45.8,422.2L45.7,422.1L45.6,422.0L45.5,421.7L45.4,421.6L45.2,421.3L45.1,421.0L45.0,420.8L44.9,420.7L44.5,419.9L44.2,419.4L44.1,419.3L44.1,419.3L43.6,418.4L43.1,417.4L43.0,417.3L42.9,417.1L42.8,416.9L42.6,416.5L42.5,416.3L42.4,416.1L42.3,416.0L41.8,415.0L41.7,414.9L41.6,414.6L41.5,414.5L41.3,414.0L41.2,413.9L41.1,413.7L41.0,413.6L40.5,412.6L40.4,412.5L40.3,412.2L40.2,412.1L40.0,411.6L39.9,411.5L39.8,411.2L39.7,411.1L39.2,410.1L39.2,410.0L39.0,409.8L39.0,409.6L38.7,409.2L38.7,409.0L38.5,408.8L38.5,408.7L38.0,407.7L37.9,407.6L37.8,407.3L37.7,407.2L37.5,406.7L37.4,406.6L37.3,406.3L37.3,406.2L36.8,405.2L36.7,405.1L36.6,404.8L36.5,404.7L36.3,404.2L36.2,404.1L36.1,403.9L36.1,403.7L35.6,402.7L35.5,402.6L35.4,402.4L35.4,402.2L35.1,401.7L35.1,401.6L35,401.4L34.9,401.2L34.4,400.2L34.4,400.1L34.3,399.9L34.2,399.7L34.0,399.2L33.9,399.1L33.8,398.9L33.7,398.7L33.3,397.7L33.2,397.6L33.1,397.4L33.1,397.2L32.9,396.7L32.8,396.6L32.7,396.4L32.6,396.2L32.2,395.2L32.1,395.1L32.0,394.8L32.0,394.7L31.8,394.2L31.7,394.1L31.6,393.8L31.5,393.7L31.1,392.7L31.1,392.6L30.9,392.3L30.9,392.2L30.7,391.7L30.6,391.6L30.5,391.3L30.5,391.2L30.1,390.2L30.0,390.0L29.9,389.8L29.8,389.6L29.6,389.1L29.6,389.0L29.5,388.8L29.4,388.6L29.0,387.6L29.0,387.5L28.9,387.4L28.9,387.3L28.8,387.1L28.8,387.0L28.7,386.9L28.7,386.8L28.5,386.3L28.5,386.3L28.4,386.1L28.4,386.1L28.3,385.8L28.3,385.7L28.2,385.6L28.2,385.6L28.0,384.9L27.7,384.2L27.5,383.6L27.2,382.9L26.9,382.3L26.7,381.6L26.4,381.0L26.2,380.3L25.9,379.7L25.7,379.0L25.4,378.4L25.2,377.7L24.9,377.1L24.7,376.4L24.6,376.3L24.6,376.2L24.6,376.1L24.5,375.9L24.5,375.9L24.4,375.8L24.4,375.7L24.2,375.3L24.2,375.3L24.2,375.2L24.2,375.1L24.1,375.0L24.1,374.9L24.1,374.8L24.0,374.8L23.9,374.4L23.9,374.4L23.8,374.2L23.8,374.1L23.6,373.7L23.6,373.7L23.5,373.5L23.5,373.4L23.4,373.0L23.3,372.9L23.3,372.8L23.3,372.8L23.2,372.6L23.2,372.6L23.2,372.5L23.2,372.4L22.8,371.3L22.7,371.2L22.6,370.9L22.6,370.8L22.4,370.3L22.3,370.1L22.2,369.9L22.2,369.7L21.8,368.6L21.7,368.5L21.6,368.2L21.6,368.1L21.4,367.5L21.4,367.4L21.3,367.1L21.2,367.0L20.8,365.9L20.8,365.8L20.7,365.5L20.7,365.4L20.5,364.8L20.4,364.7L20.3,364.4L20.3,364.3L19.9,363.2L19.9,363.0L19.8,362.8L19.7,362.6L19.6,362.1L19.5,361.9L19.4,361.7L19.4,361.5L19.0,360.4L19.0,360.3L18.9,360.0L18.9,359.9L18.7,359.3L18.6,359.2L18.6,358.9L18.5,358.8L18.2,357.7L18.1,357.5L18.1,357.3L18.0,357.1L17.8,356.6L17.8,356.4L17.7,356.2L17.7,356.0L17.4,354.9L17.3,354.8L17.2,354.5L17.2,354.4L17.0,353.8L17.0,353.7L16.9,353.4L16.9,353.3L16.6,352.1L16.5,352.0L16.4,351.7L16.4,351.6L16.2,351.0L16.2,350.9L16.1,350.6L16.1,350.5L15.8,349.4L15.7,349.2L15.7,348.9L15.6,348.8L15.5,348.2L15.4,348.1L15.4,347.8L15.3,347.7L15.0,346.6L15.0,346.4L14.9,346.2L14.9,346.0L14.8,345.5L14.7,345.3L14.7,345.0L14.6,344.9L14.3,343.8L14.3,343.6L14.2,343.4L14.2,343.2L14.1,342.7L14.0,342.5L14.0,342.2L13.9,342.1L13.7,341.0L13.6,340.8L13.6,340.5L13.5,340.4L13.4,339.8L13.4,339.7L13.3,339.4L13.3,339.3L13.0,338.2L13.0,338.0L12.9,337.7L12.9,337.6L12.8,337.0L12.7,336.9L12.7,336.6L12.6,336.5L12.4,335.3L12.4,335.2L12.3,334.9L12.3,334.8L12.2,334.2L12.1,334.1L12.1,333.8L12.0,333.6L11.8,332.5L11.8,332.4L11.8,332.2L11.7,332.1L11.7,331.8L11.6,331.7L11.6,331.5L11.6,331.4L11.4,330.6L11.4,330.5L11.4,330.2L11.3,330.1L11.2,329.5L11.2,329.3L11.1,329.0L11.1,328.8L11.1,328.7L11.1,328.6L10.9,327.9L10.9,327.9L10.9,327.8L10.9,327.7L10.9,327.6L10.8,327.3L10.8,327.2L10.8,327.1L10.8,327.0L10.5,325.4L10.4,325.2L10.4,324.8L10.3,324.6L10.2,323.8L10.2,323.6L10.1,323.2L10.1,323.0L9.8,321.4L9.8,321.1L9.7,320.7L9.7,320.5L9.6,319.7L9.5,319.5L9.5,319.1L9.4,318.9L9.2,317.3L9.2,317.1L9.1,316.7L9.1,316.5L9.0,315.7L8.9,315.5L8.9,315.1L8.9,314.9L8.6,313.2L8.6,313.0L8.6,312.6L8.5,312.4L8.4,311.6L8.4,311.4L8.4,311.0L8.4,310.8L8.2,309.2L8.1,309.0L8.1,308.5L8.1,308.3L8.0,307.5L8.0,307.3L7.9,306.9L7.9,306.7L7.7,305.1L7.7,304.9L7.7,304.5L7.7,304.3L7.6,303.4L7.6,303.2L7.5,302.8L7.5,302.6L7.4,301.0L7.4,300.9L7.4,300.7L7.3,300.6L7.3,300.2L7.3,300.1L7.3,299.9L7.3,299.8L7.2,298.9L7.2,298.8L7.2,298.6L7.2,298.6L7.2,298.5L7.2,298.1L7.2,298.0L7.1,297.8L7.1,297.7L7.1,297.1L7.1,296.6L7.1,296.5L7.0,296.3L7.0,296.2L7.0,295.9L7.0,295.8L7.0,295.6L7.0,295.5L6.9,294.9L6.9,294.8L6.9,294.6L6.9,294.5L6.9,294.2L6.9,294.1L6.9,293.9L6.9,293.9L6.8,292.5L6.8,292.3L6.8,292.0L6.8,291.8L6.7,291.2L6.7,291.0L6.7,290.7L6.7,290.5L6.7,289.1L6.6,289.0L6.6,288.6L6.6,288.5L6.6,287.8L6.6,287.6L6.6,287.3L6.6,287.1L6.5,285.8L6.5,285.7L6.5,285.5L6.5,285.3L6.5,284.9L6.5,284.8L6.5,284.6L6.5,284.5L6.5,283.6L6.5,283.5L6.5,283.1L6.5,283.0L6.5,282.4L6.5,282.2L6.5,281.9L6.5,281.7L6.5,281.3L6.5,281.3L6.4,281.2L6.4,281.1L6.4,281L6.4,280.9L6.4,280.8L6.4,280.8L6.4,279.6L6.4,279.4L6.4,279.1L6.4,279.0L6.4,278.4L6.4,278.3L6.4,278.0L6.4,277.9L6.4,276.7L6.4,276.5L6.4,276.3L6.4,276.1L6.4,275.5L6.5,275.4L6.5,275.1L6.5,275.0L6.5,273.8L6.5,273.6L6.5,273.4L6.5,273.2L6.5,272.6L6.5,272.5L6.5,272.2L6.5,272.1L6.5,270.9L6.5,270.7L6.6,270.5L6.6,270.3L6.6,269.7L6.6,269.6L6.6,269.3L6.6,269.2L6.6,268.0L6.7,267.4L6.7,266.5L6.7,266.2L6.7,266.0L6.7,265.5L6.8,265.3L6.8,265.0L6.8,264.8L6.8,264.4L6.8,264.2L6.8,263.6L6.8,263.5L6.9,263.3L6.9,263.2L6.9,262.2L6.9,262.1L6.9,261.9L7.0,260.9L7.0,260.5L7.1,259.3L7.1,259.2L7.1,258.9L7.2,258.7L7.2,258.1L7.2,258.0L7.2,257.7L7.2,257.6L7.3,256.4L7.3,256.3L7.4,256.0L7.4,255.8L7.4,255.2L7.4,255.1L7.5,254.8L7.5,254.7L7.6,253.5L7.6,253.4L7.6,253.1L7.6,252.9L7.7,252.4L7.7,252.2L7.7,251.9L7.8,251.8L7.9,250.6L7.9,250.5L7.9,250.2L7.9,250.0L8.0,249.5L8.0,249.3L8.0,249.0L8.1,248.9L8.2,247.7L8.2,247.6L8.2,247.3L8.3,247.2L8.3,246.6L8.3,246.4L8.4,246.1L8.4,246.0L8.5,244.8L8.6,244.7L8.6,244.4L8.6,244.3L8.7,243.7L8.7,243.5L8.7,243.3L8.8,243.1L8.9,242.0L8.9,241.8L9.0,241.5L9.0,241.4L9.1,240.8L9.1,240.7L9.1,240.4L9.2,240.2L9.3,239.1L9.3,239.0L9.4,238.8L9.4,238.7L9.4,238.3L9.5,238.2L9.5,238.0L9.5,237.9L9.6,237.2L9.6,237.0L9.7,236.8L9.7,236.6L9.8,236.0L9.8,235.9L9.9,235.6L9.9,235.5L9.9,235.1L10.0,235.0L10.0,234.9L10.0,234.9L10.0,234.7L10.0,234.6L10.0,234.5L10.0,234.5L10.2,233.3L10.3,233.2L10.3,232.9L10.3,232.8L10.4,232.2L10.5,232.0L10.5,231.8L10.5,231.6L10.7,230.5L10.8,230.3L10.8,230.0L10.8,229.9L11.0,229.3L11.0,229.2L11.0,228.9L11.1,228.8L11.3,227.6L11.3,227.5L11.4,227.2L11.4,227.0L11.5,226.5L11.5,226.3L11.6,226.0L11.6,225.9L11.8,224.8L11.9,224.6L11.9,224.3L12.0,224.2L12.1,223.6L12.1,223.5L12.2,223.2L12.2,223.1L12.4,221.9L12.5,221.8L12.5,221.5L12.6,221.3L12.7,220.8L12.7,220.6L12.8,220.3L12.8,220.2L13.1,219.1L13.1,218.9L13.2,218.6L13.2,218.5L13.3,217.9L13.4,217.8L13.4,217.5L13.5,217.4L13.7,216.2L13.8,216.1L13.8,215.8L13.9,215.7L14.0,215.1L14.0,215.0L14.1,214.7L14.1,214.5L14.4,213.4L14.5,213.3L14.5,213.0L14.6,212.8L14.7,212.3L14.7,212.1L14.8,211.9L14.9,211.7L15.1,210.6L15.2,210.4L15.3,210.2L15.3,210.0L15.4,209.5L15.5,209.3L15.6,209.0L15.6,208.9L15.9,207.8L15.9,207.6L16.0,207.3L16.0,207.2L16.2,206.6L16.2,206.5L16.3,206.2L16.4,206.1L16.7,205.0L16.7,204.8L16.8,204.5L16.8,204.4L17.0,203.8L17.0,203.7L17.1,203.4L17.2,203.3L17.5,202.2L17.5,202.0L17.6,201.7L17.7,201.6L17.8,201.0L17.9,200.9L18,200.6L18.0,200.5L18.3,199.4L18.4,199.2L18.5,199.0L18.5,198.8L18.7,198.3L18.7,198.1L18.8,197.8L18.9,197.7L19.2,196.6L19.3,196.5L19.3,196.2L19.4,196.0L19.6,195.5L19.6,195.3L19.7,195.1L19.7,194.9L20.1,193.8L20.1,193.7L20.2,193.6L20.2,193.5L20.4,193.1L20.4,193.0L20.4,192.8L20.5,192.7L20.7,192.0L20.8,191.9L20.9,191.6L20.9,191.5L21.1,190.9L21.1,190.8L21.2,190.5L21.3,190.4L21.4,190.0L21.4,189.9L21.5,189.8L21.5,189.8L21.6,189.6L21.6,189.6L21.6,189.5L21.6,189.4L22.0,188.3L22.1,188.2L22.2,187.9L22.2,187.8L22.4,187.2L22.5,187.1L22.6,186.8L22.6,186.7L23.0,185.6L23.1,185.4L23.2,185.2L23.2,185.0L23.4,184.5L23.5,184.3L23.6,184.1L23.6,183.9L24.0,182.8L24.1,182.7L24.2,182.4L24.2,182.3L24.5,181.8L24.5,181.6L24.6,181.3L24.7,181.2L25.1,180.1L25.1,180.0L25.3,179.7L25.3,179.6L25.5,179.0L25.6,178.9L25.7,178.6L25.7,178.5L26.2,177.4L26.2,177.3L26.3,177.0L26.4,176.9L26.6,176.3L26.7,176.2L26.8,175.9L26.8,175.8L27.3,174.7L27.3,174.6L27.5,174.3L27.5,174.2L27.7,173.6L27.8,173.5L27.9,173.2L28.0,173.1L28.4,172.0L28.5,171.9L28.6,171.6L28.7,171.5L28.9,171.0L29.0,170.8L29.1,170.6L29.1,170.4L29.6,169.4L29.7,169.2L29.8,169.0L29.8,168.8L30.1,168.3L30.1,168.2L30.3,167.9L30.3,167.8L30.8,166.7L30.9,166.6L31.0,166.3L31.1,166.2L31.3,165.6L31.4,165.5L31.5,165.2L31.5,165.1L32.0,164.1L32.1,163.9L32.2,163.7L32.3,163.5L32.5,163.0L32.6,162.9L32.7,162.6L32.8,162.5L33.3,161.4L33.4,161.3L33.5,161.0L33.6,160.9L33.8,160.4L33.9,160.2L34.0,160.0L34.1,159.8L34.6,158.8L34.7,158.7L34.8,158.4L34.9,158.3L35.1,157.8L35.2,157.6L35.3,157.4L35.4,157.2L35.9,156.2L36.0,156.1L36.1,155.8L36.2,155.7L36.5,155.2L36.5,155.0L36.7,154.8L36.7,154.6L37.3,153.6L37.3,153.5L37.5,153.2L37.5,153.1L37.8,152.6L37.9,152.4L38.0,152.2L38.1,152.1L38.6,151.0L38.7,150.9L38.8,150.8L38.8,150.7L39.0,150.4L39.0,150.3L39.1,150.1L39.2,150.0L39.5,149.4L39.6,149.3L39.7,149.0L39.8,148.9L40.1,148.4L40.1,148.3L40.3,148.0L40.4,147.8L40.5,147.7L40.5,147.6L40.8,147.1L40.8,147.0L40.9,147.0L40.9,146.9L41.0,146.8L41.1,146.6L41.1,146.5L41.2,146.4L41.2,146.3L42.0,145.0L42.0,144.9L42.1,144.8L42.2,144.7L42.4,144.3L42.4,144.3L42.5,144.1L42.6,144.0L42.9,143.4L43.0,143.3L43.1,143.1L43.1,143.0L43.3,142.7L43.4,142.6L43.5,142.5L43.5,142.4L43.9,141.8L44.2,141.2L44.6,140.6L44.9,140.0L45.3,139.5L45.3,139.4L45.3,139.3L45.4,139.2L45.5,139.0L45.5,139.0L45.6,138.9L45.6,138.8L45.9,138.4L45.9,138.3L46.0,138.2L46.0,138.2L46.1,138.0L46.2,137.9L46.2,137.8L46.3,137.8L46.8,136.9L46.8,136.8L47.0,136.6L47.0,136.5L47.3,136.1L47.3,136.0L47.5,135.8L47.5,135.7L48.0,134.8L48.1,134.7L48.2,134.5L48.3,134.4L48.6,134.0L48.6,133.9L48.8,133.7L48.8,133.6L49.3,132.8L49.4,132.7L49.5,132.4L49.6,132.3L49.9,131.9L49.9,131.8L50.1,131.6L50.1,131.5L50.7,130.7L50.7,130.6L50.9,130.4L50.9,130.3L51.2,129.9L51.3,129.8L51.4,129.6L51.5,129.5L52.0,128.6L52.1,128.5L52.2,128.3L52.3,128.2L52.5,127.8L52.6,127.7L52.7,127.5L52.8,127.4L53.3,126.6L53.4,126.5L53.5,126.3L53.6,126.2L53.9,125.8L54.0,125.7L54.1,125.5L54.2,125.4L54.7,124.6L54.8,124.5L54.9,124.3L55.0,124.2L55.3,123.8L55.3,123.7L55.5,123.5L55.6,123.4L56.1,122.5L56.2,122.4L56.3,122.2L56.4,122.1L56.7,121.7L56.7,121.6L56.9,121.4L57.0,121.3L57.5,120.5L57.6,120.4L57.7,120.2L57.8,120.1L58.1,119.7L58.2,119.6L58.3,119.4L58.4,119.3L59.0,118.5L59.0,118.4L59.2,118.2L59.2,118.2L59.5,117.8L59.6,117.7L59.7,117.5L59.8,117.4L60.4,116.6L60.5,116.5L60.6,116.3L60.7,116.2L61.0,115.8L61.1,115.7L61.2,115.5L61.3,115.4L61.9,114.6L61.9,114.5L62.1,114.3L62.2,114.2L62.5,113.8L62.5,113.7L62.7,113.5L62.8,113.4L63.4,112.6L63.4,112.6L63.6,112.4L63.7,112.3L64,111.9L64.0,111.8L64.2,111.6L64.3,111.5L64.9,110.7L64.9,110.6L65.1,110.4L65.2,110.3L65.5,109.9L65.5,109.8L65.7,109.6L65.8,109.6L66.4,108.8L66.4,108.7L66.5,108.6L66.6,108.5L66.8,108.3L66.8,108.2L66.9,108.1L67.0,108.0L67.4,107.5L67.4,107.4L67.6,107.3L67.7,107.2L68.0,106.8L68.1,106.7L68.2,106.5L68.3,106.4L68.4,106.3L68.7,105.9L68.7,105.9L68.8,105.8L68.8,105.8L68.9,105.6L69.0,105.6L69.1,105.5L69.1,105.4L69.8,104.5L69.9,104.4L70.1,104.2L70.2,104.1L70.6,103.6L70.7,103.5L70.9,103.3L71.0,103.2L71.7,102.3L71.8,102.2L72.0,102.0L72.1,101.9L72.5,101.4L72.6,101.3L72.8,101.1L72.9,101.0L73.6,100.1L73.7,100.0L73.9,99.7L74.0,99.6L74.4,99.2L74.5,99.1L74.7,98.9L74.8,98.8L75.6,97.9L75.7,97.8L75.9,97.5L76.0,97.4L76.3,97.0L76.4,96.9L76.6,96.7L76.7,96.6L77.5,95.7L77.6,95.6L77.8,95.4L77.9,95.3L78.3,94.8L78.4,94.7L78.6,94.5L78.7,94.4L79.5,93.5L79.6,93.4L79.8,93.2L79.9,93.1L80.3,92.7L80.4,92.6L80.6,92.4L80.7,92.3L81.5,91.4L81.6,91.3L81.8,91.1L81.9,91.0L82.3,90.6L82.4,90.5L82.6,90.2L82.7,90.1L83.5,89.3L83.6,89.2L83.8,89.0L84.0,88.9L84.4,88.5L84.5,88.3L84.7,88.1L84.8,88.0L85.6,87.2L85.7,87.1L85.9,86.9L86.0,86.8L86.4,86.4L86.5,86.3L86.7,86.1L86.8,86.0L87.7,85.1L87.8,85.0L88.0,84.8L88.1,84.7L88.5,84.3L88.6,84.2L88.8,84.0L88.9,83.9L89.8,83.1L89.9,83.0L90.1,82.8L90.2,82.7L90.6,82.3L90.7,82.2L90.9,82.0L91.0,81.9L91.9,81.1L92.0,81.0L92.2,80.8L92.3,80.7L92.8,80.3L92.9,80.2L93.1,80.0L93.2,79.9L94.0,79.1L94.1,79.0L94.4,78.8L94.5,78.7L94.9,78.3L95.0,78.2L95.2,78.0L95.3,77.9L96.2,77.1L96.3,77.0L96.5,76.8L96.6,76.7L97.1,76.3L97.2,76.2L97.4,76.0L97.5,75.9L98.4,75.1L98.5,75.1L98.6,75.0L98.7,74.9L98.9,74.7L99.0,74.6L99.1,74.5L99.2,74.4L99.7,74.0L99.8,73.9L100.0,73.7L100.1,73.6L100.5,73.3L100.6,73.2L100.8,73.0L100.9,72.9L101.0,72.9L101.1,72.8L101.4,72.5L101.5,72.5L101.6,72.4L101.6,72.4L101.8,72.2L101.8,72.2L101.9,72.1L101.9,72.1L102.8,71.3L103.0,71.2L103.2,71.0L103.3,70.9L103.7,70.6L103.9,70.5L104.1,70.3L104.2,70.2L104.6,69.9L105.1,69.4L105.2,69.3L105.4,69.2L105.5,69.1L105.9,68.7L106.0,68.7L106.1,68.6L106.3,68.4L106.5,68.3L107.4,67.6L107.5,67.5L107.7,67.3L107.8,67.2L108.3,66.8L108.4,66.8L108.6,66.6L108.7,66.5L109.7,65.8L109.8,65.7L110.0,65.5L110.1,65.4L110.6,65.0L110.7,64.9L110.9,64.8L111.0,64.7L112.0,63.9L112.1,63.9L112.3,63.7L112.4,63.6L112.9,63.2L113.0,63.1L113.3,63.0L113.4,62.9L114.3,62.2L114.4,62.1L114.7,61.9L114.8,61.8L115.3,61.5L115.4,61.4L115.6,61.2L115.7,61.1L116.7,60.4L116.8,60.3L117.0,60.2L117.1,60.1L117.6,59.7L117.7,59.6L118.0,59.5L118.1,59.4L119.0,58.7L119.2,58.6L119.4,58.4L119.5,58.4L120.0,58.0L120.1,57.9L120.4,57.8L120.5,57.7L121.4,57.0L121.6,56.9L121.8,56.7L121.9,56.7L122.4,56.3L122.5,56.2L122.8,56.1L122.9,56.0L123.8,55.3L124.0,55.2L124.2,55.1L124.3,55.0L124.8,54.7L124.9,54.6L125.2,54.4L125.3,54.3L126.3,53.7L126.4,53.6L126.6,53.4L126.8,53.4L127.3,53.0L127.4,53L127.6,52.8L127.7,52.7L128.7,52.1L128.9,52.0L129.1,51.8L129.2,51.7L129.7,51.4L129.8,51.3L130.1,51.2L130.2,51.1L131.2,50.5L131.3,50.4L131.6,50.2L131.7,50.2L132.2,49.8L132.3,49.8L132.6,49.6L132.7,49.5L133.7,48.9L133.8,48.8L134.1,48.7L134.2,48.6L134.7,48.3L134.8,48.2L135.1,48.1L135.2,48.0L136.2,47.4L136.3,47.3L136.4,47.2L136.5,47.2L136.8,47.0L136.8,47.0L137.0,46.9L137.1,46.8L137.6,46.5L137.7,46.4L137.9,46.3L138.0,46.3L138.4,46.0L138.5,46.0L138.7,45.8L138.9,45.8L139.0,45.7L139.3,45.5L139.4,45.5L139.4,45.4L139.6,45.3L139.6,45.3L139.7,45.3L139.8,45.2L140.5,44.8L140.6,44.7L140.8,44.6L140.9,44.6L141.3,44.3L141.4,44.3L141.6,44.2L141.7,44.1L142.1,43.9L142.1,43.9L142.4,43.7L142.5,43.7L143.0,43.4L143.1,43.3L143.4,43.2L143.5,43.1L144.5,42.5L145.2,42.2L145.8,41.8L146.0,41.7L146.5,41.4L146.7,41.3L147.2,41.1L147.3,41.0L147.5,40.9L147.6,40.8L148.1,40.5L148.2,40.5L148.5,40.3L148.6,40.3L148.9,40.1L149.1,40.0L149.6,39.8L149.8,39.6L150.2,39.4L150.6,39.2L151.3,38.9L152.3,38.3L152.4,38.2L152.7,38.1L152.8,38.0L153.3,37.8L153.5,37.7L153.7,37.6L153.9,37.5L154.9,37.0L155.0,36.9L155.3,36.8L155.4,36.7L156.0,36.5L156.1,36.4L156.4,36.3L156.5,36.2L157.5,35.7L157.7,35.6L157.9,35.5L158.1,35.4L158.6,35.2L158.7,35.1L158.8,35.0L159.2,34.8L159.4,34.7L159.7,34.6L159.9,34.5L160.6,34.1L160.7,34.0L161.1,33.9L161.2,33.8L162.3,33.2L162.4,33.2L162.7,33.0L162.8,33.0L163.3,32.7L163.4,32.6L163.7,32.5L164.3,32.2L164.5,32.1L164.6,32.1L164.8,32.0L165.2,31.7L165.3,31.7L165.3,31.7L165.9,31.4L166.2,31.2L166.4,31.1L166.7,31.0L167.7,30.5L167.8,30.4L168.7,30.0L169.0,29.9L169.1,29.8L170.2,29.3L170.3,29.2L170.6,29.1L170.7,29.0L171.2,28.8L171.4,28.7L171.8,28.5L172.4,28.2L172.5,28.1L172.7,28.1L172.8,28.0L173.1,27.9L173.2,27.8L173.3,27.7L173.4,27.7L174.1,27.4L174.1,27.3L174.3,27.3L174.4,27.2L174.7,27.1L174.8,27.0L175.0,26.9L175.0,26.9L176.3,26.3L176.5,26.2L176.8,26.0L177.0,26.0L177.6,25.6L177.8,25.6L178.1,25.4L178.3,25.3L179.6,24.7L179.8,24.6L180.1,24.5L180.2,24.4L180.9,24.1L181.1,24.0L181.4,23.9L181.6,23.8L182.9,23.2L183.0,23.1L183.4,23.0L183.5,22.9L184.2,22.6L184.3,22.6L184.7,22.4L185.2,22.2L186.0,21.8L186.1,21.8L186.2,21.8L186.5,21.6L186.6,21.6L187.3,21.3L187.6,21.2L187.9,21.0L188.3,20.8L189.3,20.4L189.6,20.3L190.2,20.1L190.8,19.8L191.0,19.7L191.3,19.6L191.5,19.5L192.8,19.0L193.0,18.9L193.3,18.8L193.5,18.7L194.2,18.4L194.3,18.4L194.7,18.2L194.8,18.2L196.2,17.6L196.3,17.6L196.5,17.5L196.6,17.5L196.9,17.4L197.0,17.3L197.2,17.3L197.3,17.2L198.0,16.9L198.1,16.9L198.4,16.8L198.5,16.8L198.9,16.6L199.0,16.6L199.3,16.4L199.5,16.4L199.7,16.3L199.7,16.3L199.8,16.3L199.9,16.3L200.4,16.1L200.4,16.0L200.5,16.0L200.6,16.0L200.8,15.9L200.9,15.9L201.0,15.8L201.1,15.8L202.2,15.4L202.3,15.4L202.6,15.3L202.7,15.2L203.3,15.0L203.4,15.0L203.7,14.9L203.9,14.8L205.0,14.4L205.1,14.4L205.4,14.3L205.5,14.2L206.1,14.0L206.2,14.0L206.5,13.9L206.6,13.9L207.8,13.5L207.9,13.4L208.2,13.3L208.3,13.3L208.9,13.1L209.0,13.1L209.3,13.0L209.4,12.9L210.5,12.6L210.7,12.5L211.0,12.4L211.1,12.4L211.7,12.2L211.8,12.2L212.1,12.1L212.2,12.0L213.4,11.7L213.5,11.6L213.8,11.6L213.9,11.5L214.5,11.3L214.6,11.3L214.9,11.2L215.0,11.2L216.2,10.8L216.3,10.8L216.6,10.7L216.7,10.7L217.3,10.5L217.4,10.5L217.7,10.4L217.9,10.3L219.0,10.0L219.1,10.0L219.4,9.9L219.6,9.8L220.1,9.7L220.3,9.6L220.5,9.6L220.7,9.5L221.8,9.2L222.0,9.2L222.2,9.1L222.4,9.1L223.0,8.9L223.1,8.9L223.4,8.8L223.5,8.8L224.7,8.5L224.8,8.4L225.1,8.3L225.2,8.3L225.8,8.2L225.9,8.1L226.2,8.1L226.4,8.0L227.5,7.7L227.7,7.7L227.9,7.6L228.1,7.6L228.7,7.5L228.8,7.4L229.1,7.3L229.2,7.3L230.4,7.0L230.5,7.0L230.8,6.9L230.9,6.9L231.5,6.8L231.7,6.7L231.9,6.7L232.1,6.6L233.2,6.4L233.4,6.3L233.7,6.3L233.8,6.2L234.4,6.1L234.5,6.1L234.8,6.0L235.0,6.0L236.1,5.7L236.3,5.7L236.5,5.7L236.7,5.6L237.3,5.5L237.4,5.5L237.7,5.4L237.8,5.4L239.0,5.1L239.1,5.1L239.4,5.1L239.6,5.0L240.1,4.9L240.3,4.9L240.6,4.8L240.7,4.8L241.9,4.6L242.0,4.6L242.1,4.5L242.2,4.5L242.5,4.5L242.6,4.5L242.7,4.4L242.8,4.4L243.4,4.3L243.5,4.3L243.7,4.2L243.8,4.2L244.1,4.2L244.2,4.2L244.4,4.1L244.5,4.1L244.6,4.1L244.7,4.1L244.9,4.0L245.0,4.0L245.1,4.0L245.1,4.0L245.7,3.9L245.8,3.9L245.9,3.8L246.0,3.8L246.2,3.8L246.3,3.8L246.4,3.8L246.5,3.7L247.7,3.5L247.8,3.5L248.1,3.5L248.3,3.5L248.8,3.4L249.0,3.3L249.3,3.3L249.4,3.3L250.6,3.1L250.7,3.1L251.0,3.0L251.2,3.0L251.7,2.9L251.9,2.9L252.2,2.8L252.3,2.8L253.5,2.6L253.6,2.6L253.9,2.6L254.1,2.6L254.7,2.5L254.8,2.5L255.1,2.4L255.2,2.4L256.4,2.2L256.5,2.2L256.8,2.2L257.0,2.2L257.6,2.1L257.7,2.1L258.0,2.0L258.2,2.0L259.3,1.9L259.5,1.9L259.8,1.8L259.9,1.8L260.5,1.7L260.6,1.7L260.9,1.7L261.1,1.7L262.2,1.5L262.4,1.5L262.7,1.5L262.8,1.5L263.4,1.4L263.6,1.4L263.9,1.4L264.0,1.3L265.2,1.2L265.3,1.2L265.6,1.2L265.8,1.2L266.3,1.1L266.5,1.1L266.8,1.1L266.9,1.1L268.1,1L268.2,0.9L268.5,0.9L268.7,0.9L269.3,0.9L269.4,0.8L269.7,0.8L269.9,0.8L271.0,0.7L271.2,0.7L271.5,0.7L271.6,0.7L272.2,0.6L272.4,0.6L272.6,0.6L272.8,0.6L274.0,0.5L274.1,0.5L274.4,0.5L274.6,0.5L275.1,0.4L275.3,0.4L275.6,0.4L275.7,0.4L276.9,0.3L277.0,0.3L277.3,0.3L277.5,0.3L278.1,0.3L278.2,0.3L278.5,0.2L278.7,0.2L279.8,0.2L280.0,0.2L280.3,0.2L280.4,0.2L281.0,0.1L281.2,0.1L281.5,0.1L281.6,0.1L282.8,0.1L282.9,0.1L283.2,0.1L283.4,0.1L284.0,0.0L284.1,0.0L284.4,0.0L284.5,0.0L285.7,0.0L285.9,0.0L286.2,0.0L286.3,0.0L286.9,0.0L287.0,0.0L287.3,0.0L287.5,0.0L288.7,0.0L288.8,0.0L289.1,0.0L289.3,0.0L289.8,0.0L290.0,0.0L290.3,0L290.4,0M291.6,0L291.8,0L292.0,0.0L292.2,0.0L292.8,0.0L292.9,0.0L293.2,0.0L293.4,0.0L294.5,0.0L294.7,0.0L295.0,0.0L295.1,0.0L295.7,0.0L295.9,0.0L296.2,0.0L296.3,0.0L297.5,0.0L297.6,0.0L297.9,0.0L298.1,0.0L298.7,0.1L298.8,0.1L299.1,0.1L299.3,0.1L300.4,0.1L300.6,0.1L300.9,0.1L301.0,0.1L301.6,0.2L301.8,0.2L302.0,0.2L302.2,0.2L303.4,0.2L303.5,0.2L303.8,0.3L304.0,0.3L304.5,0.3L304.7,0.3L305.0,0.3L305.1,0.3L306.3,0.4L306.5,0.4L306.8,0.4L306.9,0.4L307.5,0.5L307.6,0.5L307.9,0.5L308.1,0.5L309.2,0.6L309.4,0.6L309.7,0.6L309.8,0.6L310.4,0.7L310.6,0.7L310.9,0.7L311.0,0.7L312.2,0.8L312.3,0.8L312.6,0.8L312.8,0.9L313.4,0.9L313.5,0.9L313.8,0.9L313.9,1L315.1,1.1L315.3,1.1L315.6,1.1L315.7,1.1L316.3,1.2L316.4,1.2L316.7,1.2L316.9,1.2L318.0,1.3L318.2,1.4L318.5,1.4L318.6,1.4L319.2,1.5L319.4,1.5L319.6,1.5L319.8,1.5L321.0,1.7L321.1,1.7L321.4,1.7L321.5,1.7L322.1,1.8L322.3,1.8L322.6,1.9L322.7,1.9L323.9,2.0L324.0,2.0L324.3,2.1L324.5,2.1L325.1,2.2L325.2,2.2L325.5,2.2L325.6,2.2L326.8,2.4L326.9,2.4L327.2,2.5L327.4,2.5L328.0,2.6L328.1,2.6L328.4,2.6L328.5,2.6L329.7,2.8L329.9,2.8L330.2,2.9L330.3,2.9L330.9,3.0L331.0,3.0L331.3,3.1L331.5,3.1L332.6,3.3L332.8,3.3L333.1,3.3L333.2,3.4L333.8,3.5L333.9,3.5L334.2,3.5L334.4,3.5L335.5,3.7L335.6,3.8L335.7,3.8L335.8,3.8L336.1,3.8L336.1,3.8L336.3,3.9L336.3,3.9L336.9,4.0L336.9,4.0L337.1,4.0L337.1,4.0L337.4,4.1L337.4,4.1L337.5,4.1L337.6,4.1L337.8,4.2L337.9,4.2L338.3,4.2L338.4,4.2L338.5,4.3L338.6,4.3L339.2,4.4L339.3,4.4L339.5,4.5L339.5,4.5L339.8,4.5L339.9,4.5L340.1,4.6L340.2,4.6L341.3,4.8L341.5,4.8L341.7,4.9L341.9,4.9L342.5,5.0L342.6,5.1L342.9,5.1L343.0,5.1L344.2,5.4L344.3,5.4L344.6,5.5L344.8,5.5L345.3,5.6L345.5,5.7L345.8,5.7L345.9,5.7L347.1,6.0L347.2,6.0L347.5,6.1L347.6,6.1L347.7,6.1L347.8,6.2L347.9,6.2L348.2,6.2L348.4,6.3L348.9,6.4L349.1,6.4L349.4,6.5L349.5,6.5L350.7,6.8L350.8,6.8L351.1,6.9L351.2,6.9L351.8,7.1L351.9,7.1L352.2,7.2L352.4,7.2L353.5,7.5L353.7,7.5L354.0,7.6L354.1,7.6L354.7,7.7L354.8,7.8L355.1,7.9L355.2,7.9L356.4,8.2L356.5,8.2L356.8,8.3L356.9,8.3L357.5,8.5L357.7,8.5L357.9,8.6L358.1,8.6L359.2,8.9L359.4,9.0L359.7,9.0L359.8,9.1L360.4,9.2L360.5,9.3L360.8,9.3L360.9,9.4L362.1,9.7L362.2,9.7L362.5,9.8L362.6,9.8L363.2,10.0L363.3,10.0L363.6,10.1L363.8,10.2L364.9,10.5L365.0,10.5L365.3,10.6L365.5,10.7L366.0,10.8L366.2,10.9L366.4,10.9L366.6,11.0L367.7,11.3L367.9,11.4L368.1,11.5L368.3,11.5L368.8,11.7L369.0,11.7L369.3,11.8L369.4,11.8L370.5,12.2L370.7,12.2L370.9,12.3L371.1,12.4L371.6,12.5L371.8,12.6L372.1,12.7L372.2,12.7L373.3,13.1L373.5,13.1L373.7,13.2L373.9,13.3L374.4,13.5L374.6,13.5L374.9,13.6L375.0,13.6L376.1,14.0L376.3,14.1L376.5,14.2L376.7,14.2L377.2,14.4L377.4,14.4L377.6,14.5L377.8,14.6L378.9,15.0L379.0,15.0L379.3,15.1L379.5,15.2L380.0,15.4L380.1,15.4L380.4,15.5L380.6,15.6L381.7,16.0L381.7,16.0L381.8,16.0L381.9,16.1L382.2,16.1L382.2,16.2L382.3,16.2L382.4,16.2L382.9,16.4L382.9,16.4L383.0,16.5L383.1,16.5L383.3,16.5L383.4,16.6L383.7,16.7L383.8,16.7L384.2,16.9L384.3,16.9L384.4,17.0L384.5,17.0L385.2,17.3L385.2,17.3L385.4,17.3L385.5,17.4L385.8,17.5L385.8,17.5L386.0,17.6L386.1,17.6L387.2,18.0L387.3,18.1L387.6,18.2L387.7,18.2L388.3,18.5L388.4,18.5L388.7,18.6L388.8,18.7L389.9,19.1L390.0,19.2L390.3,19.3L390.4,19.3L391.0,19.6L391.1,19.6L391.4,19.7L391.5,19.8L392.6,20.2L392.8,20.3L393.0,20.4L393.2,20.5L393.7,20.7L393.8,20.7L394.1,20.9L394.3,20.9L395.3,21.4L395.5,21.4L395.7,21.5L395.9,21.6L396.4,21.8L396.5,21.9L396.8,22.0L397.0,22.1L398.0,22.5L398.2,22.6L398.4,22.7L398.6,22.8L399.1,23.0L399.2,23.1L399.5,23.2L399.6,23.3L400.7,23.7L400.8,23.8L401.1,23.9L401.2,24.0L401.2,24.0L402.3,24.5L402.4,24.5L402.7,24.6L402.8,24.7L403.4,24.9L403.5,25.0L403.8,25.1L403.9,25.2L405.0,25.7L405.1,25.7L405.4,25.8L405.5,25.9L406.1,26.1L406.2,26.2L406.5,26.3L406.6,26.4L407.7,26.9L407.8,27.0L408.1,27.1L408.2,27.1L408.7,27.4L408.9,27.5L409.1,27.6L409.3,27.6L410.3,28.2L410.4,28.2L410.7,28.3L410.8,28.4L411.4,28.7L411.5,28.7L411.8,28.9L411.9,28.9L413.0,29.4L413.1,29.5L413.4,29.6L413.5,29.7L414.0,30.0L414.1,30.0L414.4,30.2L414.5,30.2L415.6,30.8L415.7,30.8L416.0,31.0L416.1,31.0L416.6,31.3L416.9,31.2L417.6,31.2L418.2,31.1L418.9,31.0L419.6,30.9L420.3,30.8L421.0,30.7L421.6,30.6L422.1,30.6L423.1,30.4L423.6,30.4L425.6,30.2L426.1,30.1L427.1,30.0L427.6,29.9L431.6,29.6L432.1,29.5L433.1,29.4L433.6,29.4L435.6,29.3L436.1,29.2L436.7,29.2L437.7,29.1L437.8,29.1L438.1,29.1L438.2,29.1L438.8,29.0L438.9,29.0L439.2,29.0L439.3,29.0L440.4,28.9L440.6,28.9L440.9,28.9L441.0,28.9L441.5,28.9L441.7,28.9L442.0,28.8L442.1,28.8L443.2,28.8L443.3,28.8L443.6,28.8L443.7,28.8L444.3,28.7L444.4,28.7L444.7,28.7L444.8,28.7L446.0,28.7L446.1,28.6L446.4,28.6L446.5,28.6L447.1,28.6L447.2,28.6L447.5,28.6L447.6,28.6L448.7,28.6L448.9,28.6L449.1,28.5L449.3,28.5L449.8,28.5L450.0,28.5L450.2,28.5L450.4,28.5L451.5,28.5L451.7,28.5L452.0,28.5L452.2,28.5L452.9,28.5L453.1,28.5L453.4,28.5L453.6,28.5L455.0,28.4L455.2,28.4L455.6,28.4L455.6,28.4L457.2,28.4L457.7,28.4L458.9,28.4L459.5,28.4L461.8,28.5L462.3,28.5L463.5,28.5L464.1,28.5L465.2,28.5L465.4,28.6L465.7,28.6L465.8,28.6L466.4,28.6L466.6,28.6L466.9,28.6L467.0,28.6L468.2,28.7L468.3,28.7L468.6,28.7L468.8,28.7L469.3,28.7L469.5,28.7L469.8,28.8L469.9,28.8L471.1,28.8L471.3,28.8L471.5,28.8L471.7,28.9L472.3,28.9L472.4,28.9L472.7,28.9L472.9,28.9L474.0,29.0L474.2,29.0L474.5,29.0L474.6,29.1L475.2,29.1L475.4,29.1L475.6,29.1L475.8,29.1L477.0,29.2L477.1,29.2L477.4,29.3L477.5,29.3L478.1,29.3L478.3,29.3L478.6,29.4L478.7,29.4L479.0,29.4L479.0,29.4L479.3,29.4L479.4,29.4L480.6,29.5L480.7,29.6L481.0,29.6L481.2,29.6L481.7,29.7L481.9,29.7L482.2,29.7L482.3,29.7L483.5,29.8L483.6,29.8L483.9,29.9L484.1,29.9L484.7,30.0L484.8,30.0L485.1,30.0L485.2,30.0L486.4,30.1L486.6,30.2L486.8,30.2L487.0,30.2L487.6,30.3L487.7,30.3L488.0,30.3L488.2,30.4L489.3,30.5L489.5,30.5L489.8,30.6L489.9,30.6L490.5,30.6L490.6,30.7L490.9,30.7L491.1,30.7L492.2,30.9L492.4,30.9L492.7,30.9L492.8,31.0L493.4,31.0L493.5,31.1L493.8,31.1L494.0,31.1L495.1,31.3L495.3,31.3L495.6,31.4L495.7,31.4L496.3,31.5L496.4,31.5L496.7,31.5L496.9,31.6L498.0,31.7L498.2,31.8L498.5,31.8L498.6,31.8L499.2,31.9L499.3,32.0L499.6,32.0L499.8,32.0L500.9,32.2L501.0,32.2L501.1,32.3L501.2,32.3L501.5,32.3L501.6,32.3L501.7,32.4L501.8,32.4L502.3,32.5L502.4,32.5L502.5,32.5L502.5,32.5L502.8,32.5L502.8,32.6L502.9,32.6L503.0,32.6L503.3,32.6L503.4,32.6L503.7,32.7L503.8,32.7L503.9,32.8L504.0,32.8L504.6,32.9L504.7,32.9L504.9,32.9L504.9,32.9L505.3,33.0L505.3,33.0L505.5,33.0L505.6,33.1L506.7,33.3L506.9,33.3L507.1,33.4L507.3,33.4L507.9,33.5L508.0,33.5L508.3,33.6L508.4,33.6L509.6,33.9L509.7,33.9L510.0,33.9L510.2,34.0L510.7,34.1L510.9,34.1L511.2,34.2L511.3,34.2L512.5,34.5L512.6,34.5L512.9,34.6L513.0,34.6L513.6,34.7L513.8,34.8L514.0,34.8L514.2,34.9L515.3,35.1L515.5,35.1L515.8,35.2L515.9,35.2L516.5,35.4L516.6,35.4L516.9,35.5L517.0,35.5L518.2,35.8L518.3,35.8L518.6,35.9L518.8,35.9L519.3,36.1L519.5,36.1L519.7,36.2L519.9,36.2L521.0,36.5L521.2,36.5L521.5,36.6L521.6,36.6L522.2,36.8L522.3,36.8L522.6,36.9L522.7,36.9L523.9,37.2L524.0,37.3L524.3,37.3L524.4,37.4L525.0,37.5L525.1,37.6L525.4,37.6L525.6,37.7L526.7,38.0L526.8,38.0L527.1,38.1L527.3,38.2L527.8,38.3L528.0,38.4L528.3,38.4L528.4,38.5L529.5,38.8L529.7,38.8L529.9,38.9L530.1,39.0L530.7,39.1L530.8,39.2L531.1,39.2L531.2,39.3L532.3,39.6L532.5,39.7L532.8,39.8L532.9,39.8L533.5,40.0L533.6,40.0L533.9,40.1L534.0,40.1L535.1,40.5L535.3,40.5L535.6,40.6L535.7,40.7L536.3,40.8L536.4,40.9L536.7,41.0L536.8,41.0L537.9,41.4L538.1,41.4L538.4,41.5L538.5,41.6L539.1,41.8L539.2,41.8L539.5,41.9L539.6,41.9L540.7,42.3L540.9,42.4L541.1,42.5L541.3,42.5L541.8,42.7L542.0,42.7L542.3,42.8L542.4,42.9L543.5,43.3L543.6,43.3L543.9,43.4L544.1,43.5L544.6,43.7L544.7,43.7L545.0,43.8L545.2,43.9L546.3,44.3L546.3,44.3L546.4,44.3L546.5,44.3L546.8,44.4L546.8,44.5L546.9,44.5L547.0,44.5L547.5,44.7L547.5,44.7L547.6,44.8L547.7,44.8L547.9,44.8L548.0,44.9L548.2,45.0L548.4,45.0L548.7,45.2L548.8,45.2L549.0,45.3L549.1,45.3L549.6,45.5L549.7,45.5L549.8,45.6L549.9,45.6L550.2,45.7L550.3,45.7L550.4,45.8L550.5,45.8L551.5,46.2L551.6,46.3L551.9,46.4L552.0,46.4L552.5,46.6L552.6,46.7L552.9,46.8L553.0,46.8L554.0,47.2L554.1,47.3L554.4,47.4L554.5,47.4L555.0,47.6L555.1,47.7L555.4,47.8L555.5,47.8L556.5,48.2L556.6,48.3L556.9,48.4L557.0,48.4L557.5,48.6L557.6,48.7L557.8,48.8L558.0,48.8L559.0,49.2L559.1,49.3L559.3,49.4L559.5,49.5L560.0,49.7L560.1,49.7L560.3,49.8L560.4,49.9L561.4,50.3L561.6,50.4L561.8,50.5L561.9,50.5L562.4,50.7L562.6,50.8L562.8,50.9L562.9,51.0L563.9,51.4L564.0,51.5L564.3,51.6L564.4,51.6L564.9,51.9L565.0,51.9L565.3,52.0L565.4,52.1L566.4,52.5L566.5,52.6L566.8,52.7L566.9,52.8L567.4,53.0L567.6,53.1L567.8,53.2L568.0,53.3L569.0,53.8L569.1,53.8L569.4,53.9L569.5,54.0L570.1,54.3L570.2,54.3L570.5,54.4L570.6,54.5L571.7,55.1L571.9,55.1L572.2,55.3L572.3,55.3L572.9,55.6L573.0,55.7L573.3,55.8L573.5,55.9L574.6,56.5L574.7,56.6L575.0,56.7L575.2,56.8L575.7,57.1L575.9,57.1L576.2,57.3L576.3,57.3L577.4,57.9L577.6,58.0L577.9,58.2L578.0,58.2L578.6,58.5L578.7,58.6L579.0,58.7L579.1,58.8L580.2,59.4L580.4,59.5L580.7,59.6L580.8,59.7L581.4,60.0L581.5,60.1L581.8,60.2L581.9,60.3L583.0,60.9L583.2,61.0L583.5,61.1L583.6,61.2L584.1,61.5L584.3,61.6L584.6,61.8L584.7,61.8L585.8,62.5L585.9,62.5L586.2,62.7L586.4,62.8L586.9,63.1L587.0,63.2L587.3,63.3L587.5,63.4L588.6,64.0L588.6,64.1L588.7,64.1L588.8,64.2L589.0,64.3L589.1,64.3L589.2,64.4L589.3,64.4L589.7,64.7L589.8,64.8L589.9,64.8L590.0,64.9L590.2,65.0L590.5,65.2L590.6,65.2L591.1,65.5L591.2,65.6L591.4,65.7L591.5,65.8L592.2,66.2L592.3,66.3L592.5,66.4L592.6,66.4L592.9,66.6L593.0,66.7L593.2,66.8L593.3,66.9L593.5,67.0L593.8,67.2L594.0,67.3L594.2,67.4L594.3,67.5L594.8,67.8L595.0,67.9L595.2,68.0L595.3,68.1L596.3,68.7L596.4,68.8L596.7,69.0L596.8,69.0L597.3,69.3L597.4,69.4L597.7,69.6L597.8,69.7L598.2,69.9L598.2,69.9L598.3,70.0L598.4,70.0L598.5,70.1L598.6,70.2L598.7,70.2L598.7,70.3L599.8,70.9L599.8,71.0L600.0,71.1L600.1,71.1L600.4,71.3L600.5,71.4L600.6,71.5L600.7,71.5L601.3,71.9L601.4,72.0L601.5,72.1L601.6,72.1L601.9,72.3L602.0,72.4L602.2,72.5L602.2,72.5L602.8,72.9L602.9,73.0L603.1,73.1L603.2,73.2L603.6,73.4L603.7,73.5L603.9,73.6L604.0,73.7L604.7,74.2L604.8,74.3L605.0,74.4L605.1,74.4L605.4,74.7L605.5,74.8L605.7,74.9L605.8,75.0L606.5,75.5L606.6,75.5L606.8,75.7L606.9,75.7L607.3,76.0L607.4,76.0L607.6,76.2L607.6,76.2L608.4,76.7L608.5,76.8L608.7,76.9L608.7,77.0L609.1,77.3L609.2,77.3L609.4,77.5L609.5,77.5L610.2,78.0L610.3,78.1L610.5,78.2L610.6,78.3L610.9,78.6L611.0,78.6L611.2,78.8L611.3,78.8L612.0,79.3L612.1,79.4L612.3,79.5L612.4,79.6L612.7,79.9L612.8,79.9L613.0,80.1L613.1,80.1L613.8,80.7L613.9,80.8L614.2,81.0L614.3,81.1L614.9,81.5L615.0,81.6L615.3,81.8L615.4,81.9L616.5,82.7L616.6,82.8L616.9,83.0L617.0,83.1L617.4,83.4L617.7,83.6L618.0,83.8L618.6,84.3L618.9,84.5L619.8,85.3L620.0,85.3L620.2,85.5L620.3,85.6L620.8,86.0L620.9,86.1L621.1,86.2L621.2,86.3L622.1,87.1L622.3,87.2L622.5,87.3L622.6,87.4L623.1,87.8L623.2,87.9L623.4,88.1L623.5,88.2L624.4,88.9L624.5,89.0L624.8,89.2L624.9,89.3L625.3,89.6L625.4,89.7L625.7,89.9L625.8,90.0L626.7,90.8L626.8,90.9L627.0,91.0L627.1,91.1L627.6,91.5L627.7,91.6L627.9,91.8L628.0,91.9L628.5,92.3L628.6,92.3L628.8,92.6L628.9,92.6L629.1,92.7L629.1,92.8L629.7,93.3L629.8,93.3L629.8,93.4L629.9,93.5L630.1,93.6L630.2,93.7L630.5,94.0L630.6,94.1L631.0,94.4L631.1,94.5L631.3,94.7L631.4,94.7L631.9,95.2L631.9,95.2L632.0,95.3L632.1,95.4L632.2,95.4L632.4,95.7L632.5,95.7L632.6,95.8L632.7,95.9L633.4,96.5L633.6,96.7L633.7,96.8L633.9,97.0L634.0,97.1L634.5,97.5L634.6,97.6L634.8,97.8L634.9,97.8L635.8,98.6L635.9,98.7L636.1,98.9L636.2,99.0L636.6,99.4L636.7,99.5L636.9,99.7L637.1,99.8L637.9,100.6L638.0,100.7L638.2,100.9L638.3,101.0L638.8,101.4L638.9,101.5L639.1,101.7L639.2,101.8L640.0,102.6L640.2,102.7L640.4,102.9L640.5,103.0L640.9,103.4L641.0,103.5L641.2,103.7L641.3,103.8L642.2,104.6L642.3,104.8L642.5,105.0L642.6,105.1L643.0,105.5L643.1,105.6L643.3,105.8L643.4,105.9L644.2,106.7L644.4,106.8L644.6,107.0L644.7,107.1L645.1,107.5L645.2,107.6L645.4,107.8L645.5,107.9L646.3,108.8L646.4,108.9L646.6,109.1L646.7,109.2L647.1,109.6L647.2,109.7L647.4,109.9L647.5,110.0L648.4,110.9L648.5,111.0L648.7,111.2L648.8,111.3L649.2,111.7L649.3,111.8L649.5,112.0L649.6,112.1L650.4,113.0L650.5,113.1L650.7,113.3L650.8,113.4L651.2,113.8L651.3,113.9L651.5,114.2L651.6,114.3L652.4,115.1L652.5,115.2L652.7,115.5L652.8,115.6L653.2,116.0L653.3,116.1L653.5,116.3L653.6,116.4L654.3,117.3L654.4,117.4L654.6,117.6L654.7,117.7L655.1,118.2L655.2,118.3L655.4,118.5L655.5,118.6L656.3,119.5L656.4,119.6L656.6,119.8L656.7,119.9L657.1,120.4L657.2,120.5L657.3,120.7L657.4,120.8L658.2,121.7L658.3,121.8L658.5,122.0L658.6,122.1L659.0,122.6L659.1,122.7L659.3,122.9L659.3,123.0L660.1,123.9L660.2,124.0L660.4,124.2L660.5,124.4L660.9,124.8L660.9,124.9L661.1,125.1L661.2,125.2L662.0,126.1L662.0,126.2L662.1,126.3L662.1,126.3L662.3,126.5L662.3,126.5L662.4,126.6L662.4,126.7L662.7,127.0L662.8,127.1L662.9,127.2L663.0,127.4L663.1,127.6L663.5,128.0L663.5,128.1L663.7,128.3L663.8,128.4L664.2,128.9L664.3,129.0L664.4,129.1L664.5,129.2L664.7,129.5L664.7,129.6L664.9,129.7L664.9,129.8L665.6,130.7L665.7,130.8L665.9,131.0L666.0,131.2L666.4,131.6L666.5,131.7L666.6,132.0L666.7,132.1L667.4,133.0L667.5,133.1L667.7,133.4L667.8,133.5L668.2,133.9L668.2,134.1L668.4,134.3L668.5,134.4L669.2,135.3L669.3,135.4L669.5,135.7L669.6,135.8L669.9,136.3L670.0,136.4L670.2,136.6L670.3,136.7L671.0,137.7L671.0,137.8L671.2,138.0L671.3,138.1L671.7,138.6L671.7,138.7L671.9,139.0L672.0,139.1L672.7,140.0L672.8,140.2L672.8,140.2" fill="none" stroke="#00FFCC" stroke-width="1.5" stroke-dasharray="4,4" stroke-linecap="round"></path><path d="M322.5,454.2L322.6,455.5L322.3,456.7L321.7,457.3L321.0,457.7L320.5,458.5L319.9,458.5L319.4,457.7L317.9,456.7L317.4,455.8L316.8,456.3L317.2,455.6L317.3,455.0L317.2,454.3L316.8,453.6L317.9,453.6L317.6,452.1L318.5,451.6L319.8,451.4L321.0,450.9L321.8,451.7L322.3,452.9ZM352.2,452.2L352.2,453.1L351.7,453.9L349.1,456.3L345.9,457.6L342.9,457.2L340.4,455.8L336.0,452.2L334.9,450.7L334.5,449.0L334.9,447.4L336.0,445.5L337.3,443.9L339.2,442.5L343.8,440.1L345.2,439.7L346.8,439.6L348.4,439.9L349.5,440.9L350.1,442.1L351.1,444.7L352.0,448.6L351.9,449.6L351.6,450.5L351.8,451.3ZM329.7,316.3L328.8,316.1L328.6,315.2L329.5,314.9L331.2,315.3L330.8,316.4ZM320.8,304.7L321.7,304.2L322.5,304.5L322.4,305.5L321.1,306.1L319.6,306.2L318.3,306.2L317.6,305.5L317.2,304.6L315.7,304.0L314.6,303.0L314.6,301.9L315.7,300.8L317.6,301.5L318.6,302.7L319.4,304.4ZM307.2,295.6L307.6,296.1L307.9,297.1L308.1,298.2L308.0,298.9L306.8,299.9L304.9,300.6L302.9,301.0L300.9,301.1L300.5,301.3L299.7,302.0L299.4,302.2L298.9,302.1L294.1,300.2L293.3,299.8L292.7,299.2L292.4,298.4L291.4,298.9L291.7,297.2L292.6,295.8L293.7,294.9L294.7,294.6L297.1,294.5L298.1,294.1L297.6,293.0L299.7,291.8L300.2,291.3L300.7,291.3L301.2,292.4L301.9,292.2L303.3,291.3L304.0,291.7L304.7,292.4L305.0,293.1L304.6,293.5L304.4,293.8L305.0,294.6L306.1,295.3ZM287.6,287.5L286.2,289.5L284.3,290.8L281.0,291.3L278.1,291.3L277.2,291.4L276.5,291.7L275.9,291.7L274.9,291.0L274.7,290.0L274.7,284.7L273.7,282.9L273.4,282.7L272.1,282.4L271.6,282.1L271.2,280.8L271.5,279.6L273.4,277.5L274.5,276.7L275.6,276.6L276.6,276.6L277.3,276.6L278.1,276.1L279.9,274.3L281.3,273.6L283.1,272.5L284.9,272.1L289.5,269.8L290.7,269.5L291.6,269.8L292.5,270.4L294.4,270.4L295.5,270.6L296.2,271.2L296.5,271.8L296.6,273.6L297.0,274.0L298.8,274.5L299.2,274.7L299.4,275.2L300.4,276.0L300.7,276.6L300.6,277.5L300.1,278.2L297.4,281.2L297.0,281.2L296.7,281.5L295.3,282.1L295.0,282.4L294.3,283.2L289.7,285.3ZM416.7,442.3L416.4,443.5L415.9,444.2L414.1,445.6L414.7,446.1L413.9,447.3L413.5,448.6L412.9,449.5L411.8,449.9L411.2,450.0L410.0,450.3L409.4,450.4L408.8,450.3L408.2,450.0L407.6,449.9L405.1,449.8L403.0,449.6L401.1,448.9L399.0,448.2L396.1,445.6L394.9,444.2L394.9,441.7L394.0,441.0L392.8,440.7L391.8,440.1L391.7,439.8L391.2,438.0L391.0,437.7L390.7,437.4L390.4,437.0L390.2,436.4L390.4,435.7L391.5,433.8L391.8,433.1L391.7,432.1L390.7,429.4L391.4,429.2L391.9,428.7L392.2,427.9L392.2,427.0L392.4,426.1L392.8,425.6L393.1,425.2L393.3,424.8L393.1,423.4L392.4,421.9L391.6,420.7L390.7,420.2L391.2,420.0L392.8,419.1L391.7,418.7L391.2,418.6L393.3,416.9L393.9,416.9L393.9,417.5L394.0,417.9L394.2,418.2L394.4,418.6L395.8,417.7L397.0,418.5L397.4,419.8L396.4,420.8L397.4,422.2L398.6,423.1L401.1,424.5L400.6,425.1L401.9,425.3L402.5,425.9L403.7,427.8L406.0,430.3L407.3,431.2L408.4,431.0L408.7,431.4L408.8,431.6L409.0,431.9L409.4,432.1L409.3,432.2L409.8,432.7L410.3,433.1L410.5,433.1L410.7,433.2L411.4,433.1L411.6,433.1L411.6,433.4L411.5,434.0L411.6,434.2L414.7,440.1L415.0,440.4L415.2,440.5L415.4,440.7L415.7,441.3L415.9,441.6L416.1,441.9L416.3,442.1ZM442.0,427.4L441.9,429.6L440.7,431.6L440.3,431.7L439.1,431.9L438.6,432.1L438.3,432.5L438.0,433.4L437.6,433.7L436.5,433.8L435.5,433.5L433.9,432.6L432.1,431.3L431.2,430.4L430.8,429.4L431.0,428.4L431.6,427.5L431.9,426.5L431.3,425.6L432.4,425.0L432.9,423.9L432.6,423.1L431.3,423.0L431.7,421.8L433.4,420.6L434.5,418.6L434.1,418.5L434.0,418.4L434.1,418.3L433.9,418.0L434.9,417.6L436.0,416.9L436.0,417.2L436.0,418.0L436.6,417.5L436.8,417.3L437.0,416.9L437.6,417.5L437.0,418.0L438.1,418.5L439.8,418.1L440.7,418.6L441.1,419.6L441.2,420.8L441.2,423.0ZM475.7,357.1L475.2,357.5L475.0,357.8L474.9,358.6L474.7,359.3L473.4,360.1L469.3,363.5L466.5,365.0L465.1,365.4L460.7,365.7L460.0,365.6L459.2,365.2L458.1,364.3L457.3,364.0L454.5,362.8L453.6,361.9L453.1,360.2L453.2,358.7L453.6,357.3L454.4,356.3L455.5,355.8L456.9,354.4L456.1,347.5L456.8,345.0L457.1,345.6L457.4,346.0L458.3,346.7L459.7,347.3L461.6,348.0L463.3,348.2L464.1,347.5L464.7,346.3L466.0,346.0L470.5,347.2L471.3,347.5L472.1,348.1L472.4,348.6L472.9,350.1L473.2,350.4L474.5,351.0L474.8,352.3L474.5,355.4L474.8,355.5L475.4,356.3ZM372.0,319.8L371.1,320.0L365.7,320.1L359.9,317.5L356.7,316.7L353.8,317.9L352.7,319.2L350.5,323.2L349.8,326.2L349.1,325.2L348.1,322.3L347.6,321.6L347.1,321.0L346.7,320.4L346.5,319.3L346.5,318.5L346.3,317.9L345.9,317.5L345.2,317.4L343.5,316.9L342.2,315.5L341.8,313.7L342.4,311.9L347.0,310.4L347.6,310.5L348.6,310.9L349.5,311.5L351.3,313.1L352.2,313.5L353.0,313.6L357.2,312.9L358.0,313.1L360.7,314.4L361.4,314.6L367.6,315.1L369.3,315.8L370.8,317.0L371.6,317.4L372.0,317.1ZM451.8,308.7L451.7,307.1L451.9,305.7L452.6,304.9L452.6,304.4L451.7,304.1L451.2,303.3L451.0,302.3L451.1,299.8L452.7,298.5L456.3,296.2L456.7,296.8L458.1,298.1L458.3,298.7L458.3,299.0L457.8,300.0L457.2,300.7L457.4,301.0L457.7,301.1L457.8,301.4L457.6,306.1L457.8,307.6L458.2,308.1L459.2,309.1L459.4,309.5L459.3,310.4L459.0,312.0L458.9,312.8L458.8,313.2L458.1,313.7L457.8,314.1L457.9,314.6L458.0,315.1L458.2,315.6L458.3,315.8L457.8,316.4L457.3,316.7L456.6,316.9L455.8,317.4L454.8,311.4L453.7,309.0L452.1,309.8Z" fill="#CCCCCC" stroke="none"></path></g></svg>